<svg width="1920" height="1080" viewBox="0 0 1920 1080" fill="none" xmlns="http://www.w3.org/2000/svg">
<g id="1-IntroScreenOG" clip-path="url(#clip0_120_373)">
<rect width="1920" height="1080" fill="black"/>
<g id="Type/">
<text fill="white" xml:space="preserve" style="white-space: pre" font-family="GT Sectra Fine" font-size="53" font-weight="500" letter-spacing="0em"><tspan x="475.521" y="686.152">Enjoy exploring the future of collaborative </tspan><tspan x="819.788" y="750.152">automation!</tspan></text>
<text fill="white" xml:space="preserve" style="white-space: pre" font-family="Inter" font-size="53" font-weight="500" letter-spacing="0em"><tspan x="960" y="622.152">&#10;</tspan></text>
<text fill="white" xml:space="preserve" style="white-space: pre" font-family="Graphik" font-size="53" font-weight="bold" letter-spacing="0em"><tspan x="550.156" y="366.152">This demonstration showcases &#3;&#10;</tspan><tspan x="446.148" y="430.152">the ease and efficiency of human-robot </tspan><tspan x="448.503" y="494.152">collaboration, combining your intuitive </tspan><tspan x="528.832" y="558.152">inputs with the robot&#39;s accuracy. &#3;&#3;&#10;</tspan></text>
</g>
<g id="Button/">
<g id="animation/">
<g id="checked/">
<g id="Button/_2">
<path id="arrow/" d="M1733.41 787.95L1784.95 839.5L1733.41 891.05" stroke="white" stroke-width="8" stroke-miterlimit="10" stroke-linecap="round"/>
<circle id="circle/" cx="1747.5" cy="839.5" r="86.5" stroke="white" stroke-opacity="0.99" stroke-width="2"/>
</g>
<text id="Text/" fill="white" xml:space="preserve" style="white-space: pre" font-family="Graphik" font-size="47" font-weight="300" letter-spacing="0em"><tspan x="1695.16" y="998.446">Start</tspan></text>
</g>
<g id="unchecked/">
<g id="Button/_3">
<path id="arrow/_2" d="M1781 835L1785 839.5L1781 844" stroke="white" stroke-opacity="0.01" stroke-width="8" stroke-miterlimit="10" stroke-linecap="round"/>
<circle id="circle/_2" cx="1747.5" cy="839.5" r="86.5" stroke="white" stroke-opacity="0.01" stroke-width="2"/>
</g>
<text id="Text/_2" fill="white" fill-opacity="0.01" xml:space="preserve" style="white-space: pre" font-family="Graphik" font-size="47" font-weight="300" letter-spacing="0em"><tspan x="1695.16" y="998.446">Start</tspan></text>
</g>
</g>
</g>
<g id="Modal/ErrorView" opacity="0.01">
<rect width="1920" height="1080" fill="black" fill-opacity="0.5"/>
<g id="Modal/ErrorMessage" filter="url(#filter0_ddd_120_373)">
<rect x="482" y="323" width="956" height="484.212" rx="4.59615" fill="white"/>
<g id="content">
<g id="CloseCircle" clip-path="url(#clip1_120_373)">
<path id="Vector" d="M590.601 412.95C590.601 412.702 590.398 412.499 590.15 412.499L586.426 412.515L580.817 419.202L575.214 412.521L571.484 412.504C571.236 412.504 571.033 412.702 571.033 412.956C571.033 413.063 571.072 413.164 571.14 413.249L578.481 421.995L571.14 430.735C571.072 430.818 571.034 430.922 571.033 431.029C571.033 431.277 571.236 431.48 571.484 431.48L575.214 431.463L580.817 424.777L586.42 431.458L590.144 431.475C590.392 431.475 590.595 431.277 590.595 431.023C590.595 430.916 590.556 430.814 590.488 430.73L583.158 421.989L590.499 413.243C590.567 413.164 590.601 413.057 590.601 412.95Z" fill="#FF4D4F"/>
<path id="Vector_2" d="M580.817 396.594C566.858 396.594 555.538 407.913 555.538 421.873C555.538 435.833 566.858 447.152 580.817 447.152C594.777 447.152 606.096 435.833 606.096 421.873C606.096 407.913 594.777 396.594 580.817 396.594ZM580.817 442.864C569.227 442.864 559.827 433.463 559.827 421.873C559.827 410.283 569.227 400.883 580.817 400.883C592.407 400.883 601.808 410.283 601.808 421.873C601.808 433.463 592.407 442.864 580.817 442.864Z" fill="#FF4D4F"/>
</g>
<g id="right" clip-path="url(#clip2_120_373)">
<text id="title" fill="black" fill-opacity="0.85" xml:space="preserve" style="white-space: pre" font-family="Inter" font-size="36.7692" font-weight="500" letter-spacing="0em"><tspan x="642.865" y="437.486">Safety Stop</tspan></text>
<g id="content_2">
<text fill="black" fill-opacity="0.85" xml:space="preserve" style="white-space: pre" font-family="Inter" font-size="32.1731" letter-spacing="0em"><tspan x="642.865" y="507.901">Robot is stopped due to a safety stop, to reset </tspan><tspan x="642.865" y="558.459">the robot press </tspan><tspan x="1083.27" y="558.459"> on the </tspan><tspan x="642.865" y="609.017">touchscreen on the right.</tspan></text>
<text fill="black" fill-opacity="0.85" xml:space="preserve" style="white-space: pre" font-family="Inter" font-size="32.1731" font-weight="bold" letter-spacing="0em"><tspan x="884.697" y="558.459">enable robot</tspan></text>
</g>
</g>
</g>
<g id="Button-Group">
<g id="button/buttonModal" filter="url(#filter1_d_120_373)">
<rect x="1170.92" y="678.077" width="193.538" height="73.9808" rx="4.59615" fill="#1890FF"/>
<rect x="1172.07" y="679.226" width="191.24" height="71.6827" rx="3.44712" stroke="#1890FF" stroke-width="2.29808"/>
<text id="text" fill="white" xml:space="preserve" style="white-space: pre" font-family="Inter" font-size="32.1731" letter-spacing="0em"><tspan x="1207.89" y="726.546">-&#62; Done</tspan></text>
</g>
</g>
</g>
</g>
</g>
<defs>
<filter id="filter0_ddd_120_373" x="399.269" y="260.952" width="1121.46" height="649.673" filterUnits="userSpaceOnUse" color-interpolation-filters="sRGB">
<feFlood flood-opacity="0" result="BackgroundImageFix"/>
<feColorMatrix in="SourceAlpha" type="matrix" values="0 0 0 0 0 0 0 0 0 0 0 0 0 0 0 0 0 0 127 0" result="hardAlpha"/>
<feMorphology radius="18.3846" operator="dilate" in="SourceAlpha" result="effect1_dropShadow_120_373"/>
<feOffset dy="20.6827"/>
<feGaussianBlur stdDeviation="32.1731"/>
<feColorMatrix type="matrix" values="0 0 0 0 0 0 0 0 0 0 0 0 0 0 0 0 0 0 0.05 0"/>
<feBlend mode="normal" in2="BackgroundImageFix" result="effect1_dropShadow_120_373"/>
<feColorMatrix in="SourceAlpha" type="matrix" values="0 0 0 0 0 0 0 0 0 0 0 0 0 0 0 0 0 0 127 0" result="hardAlpha"/>
<feOffset dy="13.7885"/>
<feGaussianBlur stdDeviation="18.3846"/>
<feColorMatrix type="matrix" values="0 0 0 0 0 0 0 0 0 0 0 0 0 0 0 0 0 0 0.08 0"/>
<feBlend mode="normal" in2="effect1_dropShadow_120_373" result="effect2_dropShadow_120_373"/>
<feColorMatrix in="SourceAlpha" type="matrix" values="0 0 0 0 0 0 0 0 0 0 0 0 0 0 0 0 0 0 127 0" result="hardAlpha"/>
<feMorphology radius="9.19231" operator="erode" in="SourceAlpha" result="effect3_dropShadow_120_373"/>
<feOffset dy="6.89423"/>
<feGaussianBlur stdDeviation="6.89423"/>
<feColorMatrix type="matrix" values="0 0 0 0 0 0 0 0 0 0 0 0 0 0 0 0 0 0 0.12 0"/>
<feBlend mode="normal" in2="effect2_dropShadow_120_373" result="effect3_dropShadow_120_373"/>
<feBlend mode="normal" in="SourceGraphic" in2="effect3_dropShadow_120_373" result="shape"/>
</filter>
<filter id="filter1_d_120_373" x="1170.92" y="678.077" width="193.538" height="78.5771" filterUnits="userSpaceOnUse" color-interpolation-filters="sRGB">
<feFlood flood-opacity="0" result="BackgroundImageFix"/>
<feColorMatrix in="SourceAlpha" type="matrix" values="0 0 0 0 0 0 0 0 0 0 0 0 0 0 0 0 0 0 127 0" result="hardAlpha"/>
<feOffset dy="4.59615"/>
<feColorMatrix type="matrix" values="0 0 0 0 0 0 0 0 0 0 0 0 0 0 0 0 0 0 0.043 0"/>
<feBlend mode="normal" in2="BackgroundImageFix" result="effect1_dropShadow_120_373"/>
<feBlend mode="normal" in="SourceGraphic" in2="effect1_dropShadow_120_373" result="shape"/>
</filter>
<clipPath id="clip0_120_373">
<rect width="1920" height="1080" fill="white"/>
</clipPath>
<clipPath id="clip1_120_373">
<rect width="50.5577" height="50.5577" fill="white" transform="translate(555.538 396.539)"/>
</clipPath>
<clipPath id="clip2_120_373">
<rect width="721.596" height="226.385" fill="white" transform="translate(642.865 396.539)"/>
</clipPath>
</defs>
</svg>
