<svg width="1920" height="1080" viewBox="0 0 1920 1080" fill="none" xmlns="http://www.w3.org/2000/svg">
<g id="5-FinishedScreen" clip-path="url(#clip0_126_2430)">
<rect width="1920" height="1080" fill="black"/>
<g id="Type/">
<path id="Vector" d="M1111.89 686.583C1111.11 686.583 1110.39 686.442 1109.72 686.159C1109.05 685.876 1108.48 685.488 1108.02 684.993C1107.53 684.534 1107.14 683.986 1106.86 683.35C1106.61 682.679 1106.49 681.972 1106.49 681.23C1106.49 680.488 1106.61 679.799 1106.86 679.163C1107.14 678.492 1107.53 677.909 1108.02 677.414C1108.48 676.955 1109.05 676.584 1109.72 676.301C1110.39 676.018 1111.11 675.877 1111.89 675.877C1112.67 675.877 1113.39 676.018 1114.06 676.301C1114.77 676.584 1115.37 676.955 1115.87 677.414C1116.36 677.909 1116.75 678.492 1117.03 679.163C1117.32 679.799 1117.46 680.488 1117.46 681.23C1117.46 681.972 1117.32 682.679 1117.03 683.35C1116.75 683.986 1116.36 684.534 1115.87 684.993C1115.37 685.488 1114.77 685.876 1114.06 686.159C1113.39 686.442 1112.67 686.583 1111.89 686.583Z" fill="white"/>
<path id="Vector_2" d="M1082.67 686.636C1081.08 686.636 1079.58 686.353 1078.16 685.788C1076.75 685.187 1075.51 684.304 1074.45 683.138C1073.39 681.972 1072.54 680.505 1071.91 678.739C1071.31 676.937 1071.01 674.834 1071.01 672.432V672.008C1071.01 669.64 1071.31 667.556 1071.91 665.754C1072.51 663.952 1073.34 662.432 1074.4 661.196C1075.46 659.994 1076.7 659.093 1078.11 658.493C1079.56 657.857 1081.11 657.539 1082.77 657.539C1084.96 657.539 1086.73 657.963 1088.07 658.811C1089.42 659.659 1090.49 660.789 1091.31 662.203V646.091H1100.79V686H1091.31V681.495C1090.6 682.943 1089.5 684.162 1088.02 685.152C1086.57 686.141 1084.79 686.636 1082.67 686.636ZM1086.01 679.375C1087.74 679.375 1089.1 678.792 1090.09 677.626C1091.08 676.424 1091.57 674.64 1091.57 672.273V671.849C1091.57 669.517 1091.09 667.75 1090.14 666.549C1089.22 665.312 1087.88 664.694 1086.11 664.694C1084.31 664.694 1082.95 665.294 1082.03 666.496C1081.11 667.697 1080.65 669.499 1080.65 671.902V672.326C1080.65 674.658 1081.13 676.424 1082.08 677.626C1083.04 678.792 1084.35 679.375 1086.01 679.375Z" fill="white"/>
<path id="Vector_3" d="M1049.82 658.281H1059.31V663.793C1060.19 661.708 1061.36 660.207 1062.8 659.288C1064.29 658.334 1066.11 657.875 1068.26 657.91V666.761C1065.37 666.69 1063.14 667.132 1061.59 668.086C1060.07 669.04 1059.31 670.63 1059.31 672.856V686H1049.82V658.281Z" fill="white"/>
<path id="Vector_4" d="M1026.55 686.636C1025.32 686.636 1024.13 686.477 1023 686.159C1021.87 685.841 1020.88 685.346 1020.04 684.675C1019.15 684.004 1018.45 683.156 1017.92 682.131C1017.42 681.071 1017.17 679.799 1017.17 678.315C1017.17 675.064 1018.46 672.75 1021.04 671.372C1023.66 669.959 1027.28 669.252 1031.91 669.252H1034.56V668.616C1034.56 667.273 1034.33 666.213 1033.87 665.436C1033.41 664.623 1032.42 664.217 1030.9 664.217C1029.59 664.217 1028.66 664.553 1028.09 665.224C1027.56 665.86 1027.24 666.62 1027.14 667.503H1018.23C1018.34 665.842 1018.73 664.394 1019.4 663.157C1020.11 661.885 1021.04 660.825 1022.21 659.977C1023.34 659.164 1024.68 658.564 1026.24 658.175C1027.83 657.751 1029.58 657.539 1031.48 657.539C1033.39 657.539 1035.11 657.751 1036.62 658.175C1038.18 658.564 1039.5 659.182 1040.6 660.03C1041.7 660.878 1042.53 661.973 1043.09 663.316C1043.69 664.623 1043.99 666.196 1043.99 668.033V686H1034.77V682.767C1034.1 683.792 1033.11 684.693 1031.8 685.47C1030.53 686.247 1028.78 686.636 1026.55 686.636ZM1029.84 680.223C1031.18 680.223 1032.3 679.87 1033.18 679.163C1034.1 678.456 1034.56 677.502 1034.56 676.301V674.605H1032.07C1030.16 674.605 1028.76 674.835 1027.88 675.294C1027 675.718 1026.55 676.495 1026.55 677.626C1026.55 678.439 1026.82 679.075 1027.35 679.534C1027.88 679.993 1028.71 680.223 1029.84 680.223Z" fill="white"/>
<path id="Vector_5" d="M999.107 679.587C1000.91 679.587 1002.27 678.969 1003.19 677.732C1004.11 676.46 1004.57 674.658 1004.57 672.326V671.902C1004.57 669.57 1004.11 667.786 1003.19 666.549C1002.27 665.277 1000.91 664.641 999.107 664.641C997.305 664.641 995.928 665.259 994.974 666.496C994.055 667.697 993.595 669.464 993.595 671.796V672.22C993.595 674.623 994.055 676.46 994.974 677.732C995.892 678.969 997.27 679.587 999.107 679.587ZM999.055 686.636C996.935 686.636 994.938 686.318 993.065 685.682C991.228 685.046 989.638 684.127 988.296 682.926C986.918 681.725 985.84 680.241 985.062 678.474C984.285 676.707 983.896 674.711 983.896 672.485V672.061C983.896 669.835 984.285 667.839 985.062 666.072C985.84 664.27 986.918 662.733 988.296 661.461C989.638 660.189 991.228 659.217 993.065 658.546C994.938 657.875 996.952 657.539 999.107 657.539C1001.23 657.539 1003.21 657.875 1005.04 658.546C1006.92 659.182 1008.52 660.118 1009.87 661.355C1011.21 662.592 1012.27 664.093 1013.05 665.86C1013.82 667.627 1014.21 669.605 1014.21 671.796V672.22C1014.21 674.481 1013.82 676.513 1013.05 678.315C1012.27 680.082 1011.21 681.583 1009.87 682.82C1008.49 684.057 1006.86 685.011 1004.99 685.682C1003.15 686.318 1001.17 686.636 999.055 686.636Z" fill="white"/>
<path id="Vector_6" d="M968.931 686.636C966.847 686.636 965.062 686.194 963.578 685.311C962.13 684.392 961.052 683.191 960.345 681.707V686H950.858V646.091H960.345V662.415C961.158 661.072 962.271 659.924 963.684 658.97C965.098 658.016 966.864 657.539 968.984 657.539C970.61 657.539 972.129 657.839 973.542 658.44C974.956 659.04 976.192 659.941 977.252 661.143C978.312 662.344 979.143 663.846 979.743 665.648C980.379 667.45 980.697 669.534 980.697 671.902V672.326C980.697 674.728 980.379 676.831 979.743 678.633C979.143 680.399 978.312 681.866 977.252 683.032C976.192 684.233 974.938 685.134 973.489 685.735C972.076 686.335 970.557 686.636 968.931 686.636ZM965.592 679.375C967.394 679.375 968.755 678.774 969.673 677.573C970.592 676.371 971.051 674.622 971.051 672.326V671.902C971.051 669.464 970.557 667.662 969.567 666.496C968.613 665.294 967.288 664.694 965.592 664.694C963.861 664.694 962.501 665.312 961.511 666.549C960.557 667.75 960.08 669.517 960.08 671.849V672.273C960.08 674.64 960.557 676.424 961.511 677.626C962.501 678.792 963.861 679.375 965.592 679.375Z" fill="white"/>
<path id="Vector_7" d="M932.284 686.636C930.094 686.636 928.08 686.336 926.242 685.735C924.405 685.099 922.833 684.18 921.525 682.979C920.183 681.778 919.123 680.294 918.345 678.527C917.603 676.76 917.232 674.746 917.232 672.485V672.061C917.232 669.835 917.621 667.839 918.398 666.072C919.176 664.27 920.236 662.733 921.578 661.461C922.921 660.189 924.511 659.217 926.348 658.546C928.186 657.875 930.147 657.539 932.231 657.539C934.139 657.539 935.941 657.822 937.637 658.387C939.333 658.952 940.835 659.818 942.142 660.984C943.414 662.15 944.421 663.634 945.163 665.436C945.941 667.238 946.329 669.376 946.329 671.849V674.34H926.825C926.967 676.177 927.532 677.608 928.521 678.633C929.546 679.622 930.906 680.117 932.602 680.117C934.192 680.117 935.341 679.799 936.047 679.163C936.789 678.527 937.249 677.75 937.425 676.831H946.329C945.905 679.976 944.51 682.396 942.142 684.092C939.775 685.788 936.489 686.636 932.284 686.636ZM937.107 668.987C937.037 667.291 936.595 666.001 935.782 665.118C934.97 664.235 933.786 663.793 932.231 663.793C930.783 663.793 929.599 664.235 928.68 665.118C927.762 666.001 927.179 667.291 926.931 668.987H937.107Z" fill="white"/>
<path id="Vector_8" d="M908.675 686.636C905.53 686.636 903.11 685.876 901.414 684.357C899.753 682.802 898.923 680.382 898.923 677.096V664.747H895.584V658.281H898.923V652.504H908.41V658.281H913.869V664.747H908.41V676.195C908.41 677.149 908.64 677.873 909.099 678.368C909.594 678.863 910.3 679.11 911.219 679.11C911.749 679.11 912.226 679.075 912.65 679.004C913.074 678.933 913.498 678.81 913.922 678.633V685.841C913.321 686.018 912.579 686.194 911.696 686.371C910.813 686.548 909.806 686.636 908.675 686.636Z" fill="white"/>
<path id="Vector_9" d="M881.871 658.281H891.358V686H881.871V658.281ZM886.588 655.631C885.104 655.631 883.867 655.172 882.878 654.253C881.888 653.335 881.394 652.169 881.394 650.755C881.394 649.342 881.888 648.176 882.878 647.257C883.867 646.303 885.104 645.826 886.588 645.826C888.072 645.826 889.308 646.303 890.298 647.257C891.322 648.176 891.835 649.342 891.835 650.755C891.835 652.169 891.322 653.335 890.298 654.253C889.308 655.172 888.072 655.631 886.588 655.631Z" fill="white"/>
<path id="Vector_10" d="M848.119 646.091H857.606V662.733C858.348 661.284 859.461 660.065 860.945 659.076C862.464 658.051 864.39 657.539 866.722 657.539C869.407 657.539 871.58 658.404 873.241 660.136C874.937 661.832 875.785 664.446 875.785 667.98V686H866.298V669.888C866.298 668.298 865.98 667.132 865.344 666.39C864.708 665.612 863.701 665.224 862.323 665.224C860.91 665.224 859.761 665.648 858.878 666.496C858.03 667.344 857.606 668.669 857.606 670.471V686H848.119V646.091Z" fill="white"/>
<path id="Vector_11" d="M800.603 658.281H810.514L814.542 674.87L819.206 658.281H826.838L830.972 674.87L835.477 658.281H844.487L835.689 686H826.626L822.492 670.524L818.199 686H808.977L800.603 658.281Z" fill="white"/>
<path id="Vector_12" d="M1410.68 622.636C1408.49 622.636 1406.48 622.336 1404.64 621.735C1402.8 621.099 1401.23 620.18 1399.92 618.979C1398.58 617.778 1397.52 616.294 1396.74 614.527C1396 612.76 1395.63 610.746 1395.63 608.485V608.061C1395.63 605.835 1396.02 603.839 1396.8 602.072C1397.57 600.27 1398.63 598.733 1399.98 597.461C1401.32 596.189 1402.91 595.217 1404.75 594.546C1406.58 593.875 1408.54 593.539 1410.63 593.539C1412.54 593.539 1414.34 593.822 1416.03 594.387C1417.73 594.952 1419.23 595.818 1420.54 596.984C1421.81 598.15 1422.82 599.634 1423.56 601.436C1424.34 603.238 1424.73 605.376 1424.73 607.849V610.34H1405.22C1405.36 612.177 1405.93 613.608 1406.92 614.633C1407.94 615.622 1409.3 616.117 1411 616.117C1412.59 616.117 1413.74 615.799 1414.44 615.163C1415.19 614.527 1415.65 613.75 1415.82 612.831H1424.73C1424.3 615.976 1422.91 618.396 1420.54 620.092C1418.17 621.788 1414.89 622.636 1410.68 622.636ZM1415.5 604.987C1415.43 603.291 1414.99 602.001 1414.18 601.118C1413.37 600.235 1412.18 599.793 1410.63 599.793C1409.18 599.793 1408 600.235 1407.08 601.118C1406.16 602.001 1405.58 603.291 1405.33 604.987H1415.5Z" fill="white"/>
<path id="Vector_13" d="M1363.63 582.091H1373.11V598.733C1373.86 597.284 1374.97 596.065 1376.45 595.076C1377.97 594.051 1379.9 593.539 1382.23 593.539C1384.92 593.539 1387.09 594.404 1388.75 596.136C1390.44 597.832 1391.29 600.446 1391.29 603.98V622H1381.81V605.888C1381.81 604.298 1381.49 603.132 1380.85 602.39C1380.22 601.612 1379.21 601.224 1377.83 601.224C1376.42 601.224 1375.27 601.648 1374.39 602.496C1373.54 603.344 1373.11 604.669 1373.11 606.471V622H1363.63V582.091Z" fill="white"/>
<path id="Vector_14" d="M1353.59 622.636C1350.44 622.636 1348.02 621.876 1346.32 620.357C1344.66 618.802 1343.83 616.382 1343.83 613.096V600.747H1340.49V594.281H1343.83V588.504H1353.32V594.281H1358.78V600.747H1353.32V612.195C1353.32 613.149 1353.55 613.873 1354.01 614.368C1354.5 614.863 1355.21 615.11 1356.13 615.11C1356.66 615.11 1357.14 615.075 1357.56 615.004C1357.98 614.933 1358.41 614.81 1358.83 614.633V621.841C1358.23 622.018 1357.49 622.194 1356.61 622.371C1355.72 622.548 1354.72 622.636 1353.59 622.636Z" fill="white"/>
<path id="Vector_15" d="M1298.62 594.281H1308.11V598.733C1308.85 597.284 1309.96 596.065 1311.45 595.076C1312.96 594.051 1314.89 593.539 1317.22 593.539C1319.91 593.539 1322.08 594.405 1323.74 596.136C1325.44 597.832 1326.29 600.447 1326.29 603.98V622H1316.8V605.888C1316.8 604.298 1316.48 603.132 1315.84 602.39C1315.21 601.613 1314.2 601.224 1312.82 601.224C1311.41 601.224 1310.26 601.648 1309.38 602.496C1308.53 603.344 1308.11 604.669 1308.11 606.471V622H1298.62V594.281Z" fill="white"/>
<path id="Vector_16" d="M1275.36 622.636C1274.12 622.636 1272.94 622.477 1271.8 622.159C1270.67 621.841 1269.68 621.346 1268.84 620.675C1267.95 620.004 1267.25 619.156 1266.72 618.131C1266.22 617.071 1265.97 615.799 1265.97 614.315C1265.97 611.064 1267.26 608.75 1269.84 607.372C1272.46 605.959 1276.08 605.252 1280.71 605.252H1283.36V604.616C1283.36 603.273 1283.13 602.213 1282.67 601.436C1282.21 600.623 1281.22 600.217 1279.7 600.217C1278.39 600.217 1277.46 600.553 1276.89 601.224C1276.36 601.86 1276.04 602.62 1275.94 603.503H1267.03C1267.14 601.842 1267.53 600.394 1268.2 599.157C1268.91 597.885 1269.84 596.825 1271.01 595.977C1272.14 595.164 1273.48 594.564 1275.04 594.175C1276.63 593.751 1278.38 593.539 1280.28 593.539C1282.19 593.539 1283.91 593.751 1285.43 594.175C1286.98 594.564 1288.31 595.182 1289.4 596.03C1290.5 596.878 1291.33 597.973 1291.89 599.316C1292.49 600.623 1292.79 602.196 1292.79 604.033V622H1283.57V618.767C1282.9 619.792 1281.91 620.693 1280.6 621.47C1279.33 622.247 1277.58 622.636 1275.36 622.636ZM1278.64 616.223C1279.98 616.223 1281.1 615.87 1281.98 615.163C1282.9 614.456 1283.36 613.502 1283.36 612.301V610.605H1280.87C1278.96 610.605 1277.56 610.835 1276.68 611.294C1275.8 611.718 1275.36 612.495 1275.36 613.626C1275.36 614.439 1275.62 615.075 1276.15 615.534C1276.68 615.993 1277.51 616.223 1278.64 616.223Z" fill="white"/>
<path id="Vector_17" d="M1248.73 622.636C1246.54 622.636 1244.53 622.336 1242.69 621.735C1240.85 621.099 1239.28 620.18 1237.97 618.979C1236.63 617.778 1235.57 616.294 1234.79 614.527C1234.05 612.76 1233.68 610.746 1233.68 608.485V608.061C1233.68 605.835 1234.07 603.839 1234.85 602.072C1235.62 600.27 1236.68 598.733 1238.03 597.461C1239.37 596.189 1240.96 595.217 1242.8 594.546C1244.63 593.875 1246.59 593.539 1248.68 593.539C1250.59 593.539 1252.39 593.822 1254.08 594.387C1255.78 594.952 1257.28 595.818 1258.59 596.984C1259.86 598.15 1260.87 599.634 1261.61 601.436C1262.39 603.238 1262.78 605.376 1262.78 607.849V610.34H1243.27C1243.41 612.177 1243.98 613.608 1244.97 614.633C1245.99 615.622 1247.35 616.117 1249.05 616.117C1250.64 616.117 1251.79 615.799 1252.49 615.163C1253.24 614.527 1253.7 613.75 1253.87 612.831H1262.78C1262.35 615.976 1260.96 618.396 1258.59 620.092C1256.22 621.788 1252.94 622.636 1248.73 622.636ZM1253.55 604.987C1253.48 603.291 1253.04 602.001 1252.23 601.118C1251.42 600.235 1250.23 599.793 1248.68 599.793C1247.23 599.793 1246.05 600.235 1245.13 601.118C1244.21 602.001 1243.63 603.291 1243.38 604.987H1253.55Z" fill="white"/>
<path id="Vector_18" d="M1219.44 582.091H1228.87V622H1219.44V582.091Z" fill="white"/>
<path id="Vector_19" d="M1200.95 622.636C1198.86 622.636 1196.94 622.336 1195.17 621.735C1193.4 621.134 1191.87 620.233 1190.56 619.032C1189.25 617.866 1188.23 616.4 1187.49 614.633C1186.74 612.866 1186.37 610.817 1186.37 608.485V608.061C1186.37 605.764 1186.76 603.715 1187.54 601.913C1188.32 600.111 1189.38 598.592 1190.72 597.355C1192.06 596.118 1193.62 595.182 1195.38 594.546C1197.19 593.875 1199.11 593.539 1201.16 593.539C1202.86 593.539 1204.48 593.733 1206.04 594.122C1207.63 594.511 1209.04 595.147 1210.28 596.03C1211.51 596.949 1212.52 598.132 1213.3 599.581C1214.11 601.03 1214.59 602.814 1214.73 604.934H1205.82C1205.61 603.627 1205.15 602.637 1204.45 601.966C1203.77 601.259 1202.75 600.906 1201.37 600.906C1199.68 600.906 1198.37 601.507 1197.45 602.708C1196.53 603.874 1196.07 605.623 1196.07 607.955V608.379C1196.07 610.817 1196.53 612.654 1197.45 613.891C1198.37 615.092 1199.73 615.693 1201.53 615.693C1202.87 615.693 1203.97 615.304 1204.82 614.527C1205.67 613.75 1206.18 612.601 1206.35 611.082H1214.89C1214.75 614.58 1213.51 617.389 1211.18 619.509C1208.85 621.594 1205.44 622.636 1200.95 622.636Z" fill="white"/>
<path id="Vector_20" d="M1153.21 622.636C1151.62 622.636 1150.12 622.353 1148.71 621.788C1147.3 621.187 1146.06 620.304 1145 619.138C1143.94 617.972 1143.09 616.505 1142.45 614.739C1141.85 612.937 1141.55 610.834 1141.55 608.432V608.008C1141.55 605.64 1141.85 603.556 1142.45 601.754C1143.06 599.952 1143.89 598.432 1144.95 597.196C1146.01 595.994 1147.24 595.093 1148.66 594.493C1150.1 593.857 1151.66 593.539 1153.32 593.539C1155.51 593.539 1157.28 593.963 1158.62 594.811C1159.96 595.659 1161.04 596.789 1161.85 598.203V582.091H1171.34V622H1161.85V617.495C1161.15 618.943 1160.05 620.162 1158.57 621.152C1157.12 622.141 1155.33 622.636 1153.21 622.636ZM1156.55 615.375C1158.28 615.375 1159.64 614.792 1160.63 613.626C1161.62 612.424 1162.12 610.64 1162.12 608.273V607.849C1162.12 605.517 1161.64 603.75 1160.69 602.549C1159.77 601.312 1158.43 600.694 1156.66 600.694C1154.86 600.694 1153.5 601.294 1152.58 602.496C1151.66 603.697 1151.2 605.499 1151.2 607.902V608.326C1151.2 610.658 1151.68 612.424 1152.63 613.626C1153.58 614.792 1154.89 615.375 1156.55 615.375Z" fill="white"/>
<path id="Vector_21" d="M1109.44 594.281H1118.93V598.733C1119.67 597.284 1120.79 596.065 1122.27 595.076C1123.79 594.051 1125.72 593.539 1128.05 593.539C1130.73 593.539 1132.91 594.405 1134.57 596.136C1136.26 597.832 1137.11 600.447 1137.11 603.98V622H1127.62V605.888C1127.62 604.298 1127.31 603.132 1126.67 602.39C1126.03 601.613 1125.03 601.224 1123.65 601.224C1122.23 601.224 1121.09 601.648 1120.2 602.496C1119.36 603.344 1118.93 604.669 1118.93 606.471V622H1109.44V594.281Z" fill="white"/>
<path id="Vector_22" d="M1086.18 622.636C1084.94 622.636 1083.76 622.477 1082.63 622.159C1081.5 621.841 1080.51 621.346 1079.66 620.675C1078.78 620.004 1078.07 619.156 1077.54 618.131C1077.05 617.071 1076.8 615.799 1076.8 614.315C1076.8 611.064 1078.09 608.75 1080.67 607.372C1083.28 605.959 1086.9 605.252 1091.53 605.252H1094.18V604.616C1094.18 603.273 1093.95 602.213 1093.49 601.436C1093.03 600.623 1092.05 600.217 1090.53 600.217C1089.22 600.217 1088.28 600.553 1087.72 601.224C1087.19 601.86 1086.87 602.62 1086.76 603.503H1077.86C1077.96 601.842 1078.35 600.394 1079.02 599.157C1079.73 597.885 1080.67 596.825 1081.83 595.977C1082.96 595.164 1084.31 594.564 1085.86 594.175C1087.45 593.751 1089.2 593.539 1091.11 593.539C1093.02 593.539 1094.73 593.751 1096.25 594.175C1097.8 594.564 1099.13 595.182 1100.22 596.03C1101.32 596.878 1102.15 597.973 1102.72 599.316C1103.32 600.623 1103.62 602.196 1103.62 604.033V622H1094.39V618.767C1093.72 619.792 1092.73 620.693 1091.43 621.47C1090.15 622.247 1088.41 622.636 1086.18 622.636ZM1089.47 616.223C1090.81 616.223 1091.92 615.87 1092.8 615.163C1093.72 614.456 1094.18 613.502 1094.18 612.301V610.605H1091.69C1089.78 610.605 1088.39 610.835 1087.5 611.294C1086.62 611.718 1086.18 612.495 1086.18 613.626C1086.18 614.439 1086.44 615.075 1086.97 615.534C1087.5 615.993 1088.34 616.223 1089.47 616.223Z" fill="white"/>
<path id="Vector_23" d="M1034.45 594.281H1043.93V598.733C1044.68 597.284 1045.79 596.065 1047.27 595.076C1048.79 594.051 1050.72 593.539 1053.05 593.539C1055.74 593.539 1057.91 594.405 1059.57 596.136C1061.27 597.832 1062.11 600.447 1062.11 603.98V622H1052.63V605.888C1052.63 604.298 1052.31 603.132 1051.67 602.39C1051.04 601.613 1050.03 601.224 1048.65 601.224C1047.24 601.224 1046.09 601.648 1045.21 602.496C1044.36 603.344 1043.93 604.669 1043.93 606.471V622H1034.45V594.281Z" fill="white"/>
<path id="Vector_24" d="M1014.79 615.587C1016.59 615.587 1017.95 614.969 1018.87 613.732C1019.79 612.46 1020.25 610.658 1020.25 608.326V607.902C1020.25 605.57 1019.79 603.786 1018.87 602.549C1017.95 601.277 1016.59 600.641 1014.79 600.641C1012.99 600.641 1011.61 601.259 1010.66 602.496C1009.74 603.697 1009.28 605.464 1009.28 607.796V608.22C1009.28 610.623 1009.74 612.46 1010.66 613.732C1011.57 614.969 1012.95 615.587 1014.79 615.587ZM1014.74 622.636C1012.62 622.636 1010.62 622.318 1008.75 621.682C1006.91 621.046 1005.32 620.127 1003.98 618.926C1002.6 617.725 1001.52 616.241 1000.75 614.474C999.968 612.707 999.579 610.711 999.579 608.485V608.061C999.579 605.835 999.968 603.839 1000.75 602.072C1001.52 600.27 1002.6 598.733 1003.98 597.461C1005.32 596.189 1006.91 595.217 1008.75 594.546C1010.62 593.875 1012.63 593.539 1014.79 593.539C1016.91 593.539 1018.89 593.875 1020.73 594.546C1022.6 595.182 1024.21 596.118 1025.55 597.355C1026.89 598.592 1027.95 600.093 1028.73 601.86C1029.51 603.627 1029.9 605.605 1029.9 607.796V608.22C1029.9 610.481 1029.51 612.513 1028.73 614.315C1027.95 616.082 1026.89 617.583 1025.55 618.82C1024.17 620.057 1022.55 621.011 1020.67 621.682C1018.84 622.318 1016.86 622.636 1014.74 622.636Z" fill="white"/>
<path id="Vector_25" d="M985.283 594.281H994.77V622H985.283V594.281ZM990 591.631C988.516 591.631 987.279 591.172 986.29 590.253C985.3 589.335 984.806 588.169 984.806 586.755C984.806 585.342 985.3 584.176 986.29 583.257C987.279 582.303 988.516 581.826 990 581.826C991.484 581.826 992.72 582.303 993.71 583.257C994.734 584.176 995.247 585.342 995.247 586.755C995.247 588.169 994.734 589.335 993.71 590.253C992.72 591.172 991.484 591.631 990 591.631Z" fill="white"/>
<path id="Vector_26" d="M974.977 622.636C971.832 622.636 969.412 621.876 967.716 620.357C966.055 618.802 965.225 616.382 965.225 613.096V600.747H961.886V594.281H965.225V588.504H974.712V594.281H980.171V600.747H974.712V612.195C974.712 613.149 974.941 613.873 975.401 614.368C975.895 614.863 976.602 615.11 977.521 615.11C978.051 615.11 978.528 615.075 978.952 615.004C979.376 614.933 979.8 614.81 980.224 614.633V621.841C979.623 622.018 978.881 622.194 977.998 622.371C977.114 622.548 976.107 622.636 974.977 622.636Z" fill="white"/>
<path id="Vector_27" d="M948.172 594.281H957.659V622H948.172V594.281ZM952.889 591.631C951.405 591.631 950.169 591.172 949.179 590.253C948.19 589.335 947.695 588.169 947.695 586.755C947.695 585.342 948.19 584.176 949.179 583.257C950.169 582.303 951.405 581.826 952.889 581.826C954.373 581.826 955.61 582.303 956.599 583.257C957.624 584.176 958.136 585.342 958.136 586.755C958.136 588.169 957.624 589.335 956.599 590.253C955.61 591.172 954.373 591.631 952.889 591.631Z" fill="white"/>
<path id="Vector_28" d="M931.031 622.636C927.073 622.636 923.982 621.841 921.756 620.251C919.565 618.661 918.417 616.311 918.311 613.202H927.056C927.232 614.227 927.586 615.004 928.116 615.534C928.681 616.064 929.635 616.329 930.978 616.329C932.144 616.329 932.992 616.135 933.522 615.746C934.087 615.322 934.37 614.757 934.37 614.05C934.37 613.379 933.981 612.866 933.204 612.513C932.462 612.16 931.137 611.842 929.229 611.559C927.356 611.312 925.748 610.994 924.406 610.605C923.098 610.181 922.021 609.616 921.173 608.909C920.325 608.238 919.689 607.39 919.265 606.365C918.876 605.34 918.682 604.104 918.682 602.655C918.682 601.136 919 599.811 919.636 598.68C920.272 597.514 921.137 596.542 922.233 595.765C923.293 595.023 924.547 594.475 925.996 594.122C927.444 593.733 928.964 593.539 930.554 593.539C932.25 593.539 933.804 593.698 935.218 594.016C936.666 594.334 937.921 594.846 938.981 595.553C940.041 596.26 940.889 597.178 941.525 598.309C942.196 599.44 942.62 600.835 942.797 602.496H934.211C934.034 601.577 933.663 600.888 933.098 600.429C932.568 599.97 931.755 599.74 930.66 599.74C929.635 599.74 928.858 599.952 928.328 600.376C927.798 600.765 927.533 601.277 927.533 601.913C927.533 602.584 927.886 603.079 928.593 603.397C929.299 603.715 930.501 603.98 932.197 604.192C934.105 604.439 935.765 604.757 937.179 605.146C938.627 605.535 939.829 606.065 940.783 606.736C941.737 607.443 942.443 608.308 942.903 609.333C943.362 610.358 943.592 611.612 943.592 613.096C943.592 616.382 942.461 618.802 940.2 620.357C937.938 621.876 934.882 622.636 931.031 622.636Z" fill="white"/>
<path id="Vector_29" d="M900.25 615.587C902.052 615.587 903.412 614.969 904.331 613.732C905.25 612.46 905.709 610.658 905.709 608.326V607.902C905.709 605.57 905.25 603.786 904.331 602.549C903.412 601.277 902.052 600.641 900.25 600.641C898.448 600.641 897.07 601.259 896.116 602.496C895.197 603.697 894.738 605.464 894.738 607.796V608.22C894.738 610.623 895.197 612.46 896.116 613.732C897.035 614.969 898.413 615.587 900.25 615.587ZM900.197 622.636C898.077 622.636 896.081 622.318 894.208 621.682C892.371 621.046 890.781 620.127 889.438 618.926C888.06 617.725 886.982 616.241 886.205 614.474C885.428 612.707 885.039 610.711 885.039 608.485V608.061C885.039 605.835 885.428 603.839 886.205 602.072C886.982 600.27 888.06 598.733 889.438 597.461C890.781 596.189 892.371 595.217 894.208 594.546C896.081 593.875 898.095 593.539 900.25 593.539C902.37 593.539 904.349 593.875 906.186 594.546C908.059 595.182 909.666 596.118 911.009 597.355C912.352 598.592 913.412 600.093 914.189 601.86C914.966 603.627 915.355 605.605 915.355 607.796V608.22C915.355 610.481 914.966 612.513 914.189 614.315C913.412 616.082 912.352 617.583 911.009 618.82C909.631 620.057 908.006 621.011 906.133 621.682C904.296 622.318 902.317 622.636 900.197 622.636Z" fill="white"/>
<path id="Vector_30" d="M852.001 594.281H861.488V598.415C862.301 597.072 863.414 595.924 864.827 594.97C866.24 594.016 868.007 593.539 870.127 593.539C871.752 593.539 873.272 593.839 874.685 594.44C876.098 595.041 877.335 595.942 878.395 597.143C879.455 598.344 880.285 599.846 880.886 601.648C881.522 603.45 881.84 605.535 881.84 607.902V608.326C881.84 610.729 881.522 612.831 880.886 614.633C880.285 616.4 879.455 617.866 878.395 619.032C877.335 620.233 876.081 621.134 874.632 621.735C873.219 622.336 871.699 622.636 870.074 622.636C867.954 622.636 866.17 622.194 864.721 621.311C863.272 620.428 862.195 619.297 861.488 617.919V631.275H852.001V594.281ZM866.735 615.375C868.537 615.375 869.897 614.774 870.816 613.573C871.735 612.372 872.194 610.623 872.194 608.326V607.902C872.194 605.464 871.699 603.662 870.71 602.496C869.756 601.295 868.431 600.694 866.735 600.694C865.004 600.694 863.643 601.312 862.654 602.549C861.7 603.75 861.223 605.517 861.223 607.849V608.273C861.223 610.64 861.7 612.425 862.654 613.626C863.643 614.792 865.004 615.375 866.735 615.375Z" fill="white"/>
<path id="Vector_31" d="M820.112 632.282C817.745 632.282 815.695 632.035 813.964 631.54C812.233 631.081 810.784 630.409 809.618 629.526C808.416 628.607 807.48 627.512 806.809 626.24C806.173 625.003 805.767 623.59 805.59 622H815.024C815.236 623.025 815.695 623.873 816.402 624.544C817.144 625.251 818.381 625.604 820.112 625.604C822.232 625.604 823.733 625.056 824.617 623.961C825.535 622.901 825.995 621.505 825.995 619.774V615.534C825.642 616.205 825.182 616.841 824.617 617.442C824.087 618.043 823.469 618.573 822.762 619.032C822.02 619.527 821.19 619.915 820.271 620.198C819.388 620.481 818.434 620.622 817.409 620.622C815.784 620.622 814.246 620.339 812.798 619.774C811.384 619.173 810.148 618.308 809.088 617.177C808.028 616.046 807.18 614.651 806.544 612.99C805.943 611.329 805.643 609.439 805.643 607.319V606.895C805.643 604.846 805.943 603.008 806.544 601.383C807.18 599.722 808.028 598.309 809.088 597.143C810.148 595.977 811.384 595.094 812.798 594.493C814.246 593.857 815.784 593.539 817.409 593.539C819.635 593.539 821.419 593.963 822.762 594.811C824.105 595.659 825.182 596.79 825.995 598.203V594.281H835.482V619.668C835.482 623.837 834.157 626.982 831.507 629.102C828.892 631.222 825.094 632.282 820.112 632.282ZM820.748 613.626C822.444 613.626 823.787 613.061 824.776 611.93C825.765 610.799 826.26 609.245 826.26 607.266V606.895C826.26 604.987 825.783 603.468 824.829 602.337C823.91 601.206 822.568 600.641 820.801 600.641C818.999 600.641 817.639 601.224 816.72 602.39C815.801 603.521 815.342 605.04 815.342 606.948V607.372C815.342 609.28 815.819 610.799 816.773 611.93C817.727 613.061 819.052 613.626 820.748 613.626Z" fill="white"/>
<path id="Vector_32" d="M773.64 594.281H783.127V598.733C783.869 597.284 784.982 596.065 786.466 595.076C787.985 594.051 789.911 593.539 792.243 593.539C794.928 593.539 797.101 594.405 798.762 596.136C800.458 597.832 801.306 600.447 801.306 603.98V622H791.819V605.888C791.819 604.298 791.501 603.132 790.865 602.39C790.229 601.613 789.222 601.224 787.844 601.224C786.43 601.224 785.282 601.648 784.399 602.496C783.551 603.344 783.127 604.669 783.127 606.471V622H773.64V594.281Z" fill="white"/>
<path id="Vector_33" d="M757.859 594.281H767.346V622H757.859V594.281ZM762.576 591.631C761.092 591.631 759.855 591.172 758.866 590.253C757.877 589.335 757.382 588.169 757.382 586.755C757.382 585.342 757.877 584.176 758.866 583.257C759.855 582.303 761.092 581.826 762.576 581.826C764.06 581.826 765.297 582.303 766.286 583.257C767.311 584.176 767.823 585.342 767.823 586.755C767.823 588.169 767.311 589.335 766.286 590.253C765.297 591.172 764.06 591.631 762.576 591.631Z" fill="white"/>
<path id="Vector_34" d="M747.553 622.636C744.408 622.636 741.988 621.876 740.292 620.357C738.631 618.802 737.801 616.382 737.801 613.096V600.747H734.462V594.281H737.801V588.504H747.288V594.281H752.747V600.747H747.288V612.195C747.288 613.149 747.518 613.873 747.977 614.368C748.472 614.863 749.178 615.11 750.097 615.11C750.627 615.11 751.104 615.075 751.528 615.004C751.952 614.933 752.376 614.81 752.8 614.633V621.841C752.199 622.018 751.457 622.194 750.574 622.371C749.691 622.548 748.684 622.636 747.553 622.636Z" fill="white"/>
<path id="Vector_35" d="M712.928 594.281H722.415V599.793C723.298 597.708 724.464 596.207 725.913 595.288C727.397 594.334 729.216 593.875 731.372 593.91V602.761C728.474 602.69 726.248 603.132 724.694 604.086C723.174 605.04 722.415 606.63 722.415 608.856V622H712.928V594.281Z" fill="white"/>
<path id="Vector_36" d="M689.663 622.636C688.427 622.636 687.243 622.477 686.112 622.159C684.982 621.841 683.992 621.346 683.144 620.675C682.261 620.004 681.554 619.156 681.024 618.131C680.53 617.071 680.282 615.799 680.282 614.315C680.282 611.064 681.572 608.75 684.151 607.372C686.766 605.959 690.388 605.252 695.016 605.252H697.666V604.616C697.666 603.273 697.437 602.213 696.977 601.436C696.518 600.623 695.529 600.217 694.009 600.217C692.702 600.217 691.766 600.553 691.2 601.224C690.67 601.86 690.352 602.62 690.246 603.503H681.342C681.448 601.842 681.837 600.394 682.508 599.157C683.215 597.885 684.151 596.825 685.317 595.977C686.448 595.164 687.791 594.564 689.345 594.175C690.935 593.751 692.684 593.539 694.592 593.539C696.5 593.539 698.214 593.751 699.733 594.175C701.288 594.564 702.613 595.182 703.708 596.03C704.804 596.878 705.634 597.973 706.199 599.316C706.8 600.623 707.1 602.196 707.1 604.033V622H697.878V618.767C697.207 619.792 696.218 620.693 694.91 621.47C693.638 622.247 691.889 622.636 689.663 622.636ZM692.949 616.223C694.292 616.223 695.405 615.87 696.288 615.163C697.207 614.456 697.666 613.502 697.666 612.301V610.605H695.175C693.267 610.605 691.872 610.835 690.988 611.294C690.105 611.718 689.663 612.495 689.663 613.626C689.663 614.439 689.928 615.075 690.458 615.534C690.988 615.993 691.819 616.223 692.949 616.223Z" fill="white"/>
<path id="Vector_37" d="M671.831 622.636C668.687 622.636 666.266 621.876 664.57 620.357C662.91 618.802 662.079 616.382 662.079 613.096V600.747H658.74V594.281H662.079V588.504H671.566V594.281H677.025V600.747H671.566V612.195C671.566 613.149 671.796 613.873 672.255 614.368C672.75 614.863 673.457 615.11 674.375 615.11C674.905 615.11 675.382 615.075 675.806 615.004C676.23 614.933 676.654 614.81 677.078 614.633V621.841C676.478 622.018 675.736 622.194 674.852 622.371C673.969 622.548 672.962 622.636 671.831 622.636Z" fill="white"/>
<path id="Vector_38" d="M643.93 622.636C639.973 622.636 636.881 621.841 634.655 620.251C632.464 618.661 631.316 616.311 631.21 613.202H639.955C640.132 614.227 640.485 615.004 641.015 615.534C641.58 616.064 642.534 616.329 643.877 616.329C645.043 616.329 645.891 616.135 646.421 615.746C646.986 615.322 647.269 614.757 647.269 614.05C647.269 613.379 646.88 612.866 646.103 612.513C645.361 612.16 644.036 611.842 642.128 611.559C640.255 611.312 638.648 610.994 637.305 610.605C635.998 610.181 634.92 609.616 634.072 608.909C633.224 608.238 632.588 607.39 632.164 606.365C631.775 605.34 631.581 604.104 631.581 602.655C631.581 601.136 631.899 599.811 632.535 598.68C633.171 597.514 634.037 596.542 635.132 595.765C636.192 595.023 637.446 594.475 638.895 594.122C640.344 593.733 641.863 593.539 643.453 593.539C645.149 593.539 646.704 593.698 648.117 594.016C649.566 594.334 650.82 594.846 651.88 595.553C652.94 596.26 653.788 597.178 654.424 598.309C655.095 599.44 655.519 600.835 655.696 602.496H647.11C646.933 601.577 646.562 600.888 645.997 600.429C645.467 599.97 644.654 599.74 643.559 599.74C642.534 599.74 641.757 599.952 641.227 600.376C640.697 600.765 640.432 601.277 640.432 601.913C640.432 602.584 640.785 603.079 641.492 603.397C642.199 603.715 643.4 603.98 645.096 604.192C647.004 604.439 648.665 604.757 650.078 605.146C651.527 605.535 652.728 606.065 653.682 606.736C654.636 607.443 655.343 608.308 655.802 609.333C656.261 610.358 656.491 611.612 656.491 613.096C656.491 616.382 655.36 618.802 653.099 620.357C650.838 621.876 647.781 622.636 643.93 622.636Z" fill="white"/>
<path id="Vector_39" d="M599.526 594.281H609.013V599.793C609.897 597.708 611.063 596.207 612.511 595.288C613.995 594.334 615.815 593.875 617.97 593.91V602.761C615.073 602.69 612.847 603.132 611.292 604.086C609.773 605.04 609.013 606.63 609.013 608.856V622H599.526V594.281Z" fill="white"/>
<path id="Vector_40" d="M583.747 594.281H593.234V622H583.747V594.281ZM588.464 591.631C586.98 591.631 585.743 591.172 584.754 590.253C583.764 589.335 583.27 588.169 583.27 586.755C583.27 585.342 583.764 584.176 584.754 583.257C585.743 582.303 586.98 581.826 588.464 581.826C589.948 581.826 591.184 582.303 592.174 583.257C593.198 584.176 593.711 585.342 593.711 586.755C593.711 588.169 593.198 589.335 592.174 590.253C591.184 591.172 589.948 591.631 588.464 591.631Z" fill="white"/>
<path id="Vector_41" d="M564.907 622.636C562.717 622.636 560.703 622.336 558.865 621.735C557.028 621.099 555.456 620.18 554.148 618.979C552.806 617.778 551.746 616.294 550.968 614.527C550.226 612.76 549.855 610.746 549.855 608.485V608.061C549.855 605.835 550.244 603.839 551.021 602.072C551.799 600.27 552.859 598.733 554.201 597.461C555.544 596.189 557.134 595.217 558.971 594.546C560.809 593.875 562.77 593.539 564.854 593.539C566.762 593.539 568.564 593.822 570.26 594.387C571.956 594.952 573.458 595.818 574.765 596.984C576.037 598.15 577.044 599.634 577.786 601.436C578.564 603.238 578.952 605.376 578.952 607.849V610.34H559.448C559.59 612.177 560.155 613.608 561.144 614.633C562.169 615.622 563.529 616.117 565.225 616.117C566.815 616.117 567.964 615.799 568.67 615.163C569.412 614.527 569.872 613.75 570.048 612.831H578.952C578.528 615.976 577.133 618.396 574.765 620.092C572.398 621.788 569.112 622.636 564.907 622.636ZM569.73 604.987C569.66 603.291 569.218 602.001 568.405 601.118C567.593 600.235 566.409 599.793 564.854 599.793C563.406 599.793 562.222 600.235 561.303 601.118C560.385 602.001 559.802 603.291 559.554 604.987H569.73Z" fill="white"/>
<path id="Vector_42" d="M517.853 582.091H527.34V598.733C528.082 597.284 529.195 596.065 530.679 595.076C532.198 594.051 534.124 593.539 536.456 593.539C539.141 593.539 541.314 594.404 542.975 596.136C544.671 597.832 545.519 600.446 545.519 603.98V622H536.032V605.888C536.032 604.298 535.714 603.132 535.078 602.39C534.442 601.612 533.435 601.224 532.057 601.224C530.643 601.224 529.495 601.648 528.612 602.496C527.764 603.344 527.34 604.669 527.34 606.471V622H517.853V582.091Z" fill="white"/>
<path id="Vector_43" d="M507.811 622.636C504.666 622.636 502.246 621.876 500.55 620.357C498.889 618.802 498.059 616.382 498.059 613.096V600.747H494.72V594.281H498.059V588.504H507.546V594.281H513.005V600.747H507.546V612.195C507.546 613.149 507.775 613.873 508.235 614.368C508.729 614.863 509.436 615.11 510.355 615.11C510.885 615.11 511.362 615.075 511.786 615.004C512.21 614.933 512.634 614.81 513.058 614.633V621.841C512.457 622.018 511.715 622.194 510.832 622.371C509.948 622.548 508.941 622.636 507.811 622.636Z" fill="white"/>
<path id="Vector_44" d="M1395.47 551.587C1397.27 551.587 1398.63 550.969 1399.55 549.732C1400.47 548.46 1400.93 546.658 1400.93 544.326V543.902C1400.93 541.57 1400.47 539.786 1399.55 538.549C1398.63 537.277 1397.27 536.641 1395.47 536.641C1393.67 536.641 1392.29 537.259 1391.33 538.496C1390.42 539.697 1389.96 541.464 1389.96 543.796V544.22C1389.96 546.623 1390.42 548.46 1391.33 549.732C1392.25 550.969 1393.63 551.587 1395.47 551.587ZM1395.42 558.636C1393.3 558.636 1391.3 558.318 1389.43 557.682C1387.59 557.046 1386 556.127 1384.66 554.926C1383.28 553.725 1382.2 552.241 1381.42 550.474C1380.65 548.707 1380.26 546.711 1380.26 544.485V544.061C1380.26 541.835 1380.65 539.839 1381.42 538.072C1382.2 536.27 1383.28 534.733 1384.66 533.461C1386 532.189 1387.59 531.217 1389.43 530.546C1391.3 529.875 1393.31 529.539 1395.47 529.539C1397.59 529.539 1399.57 529.875 1401.4 530.546C1403.28 531.182 1404.89 532.118 1406.23 533.355C1407.57 534.592 1408.63 536.093 1409.41 537.86C1410.19 539.627 1410.57 541.605 1410.57 543.796V544.22C1410.57 546.481 1410.19 548.513 1409.41 550.315C1408.63 552.082 1407.57 553.583 1406.23 554.82C1404.85 556.057 1403.22 557.011 1401.35 557.682C1399.51 558.318 1397.54 558.636 1395.42 558.636Z" fill="white"/>
<path id="Vector_45" d="M1371.7 558.636C1368.56 558.636 1366.14 557.876 1364.44 556.357C1362.78 554.802 1361.95 552.382 1361.95 549.096V536.747H1358.61V530.281H1361.95V524.504H1371.44V530.281H1376.89V536.747H1371.44V548.195C1371.44 549.149 1371.67 549.873 1372.12 550.368C1372.62 550.863 1373.33 551.11 1374.24 551.11C1374.77 551.11 1375.25 551.075 1375.68 551.004C1376.1 550.933 1376.52 550.81 1376.95 550.633V557.841C1376.35 558.018 1375.6 558.194 1374.72 558.371C1373.84 558.548 1372.83 558.636 1371.7 558.636Z" fill="white"/>
<path id="Vector_46" d="M1319.22 518.091H1328.71V541.252L1336.18 530.281H1346.04L1336.97 542.736L1346.78 558H1336.18L1328.71 545.863V558H1319.22V518.091Z" fill="white"/>
<path id="Vector_47" d="M1301 558.636C1298.91 558.636 1296.99 558.336 1295.22 557.735C1293.45 557.134 1291.92 556.233 1290.61 555.032C1289.3 553.866 1288.28 552.4 1287.53 550.633C1286.79 548.866 1286.42 546.817 1286.42 544.485V544.061C1286.42 541.764 1286.81 539.715 1287.59 537.913C1288.36 536.111 1289.42 534.592 1290.77 533.355C1292.11 532.118 1293.66 531.182 1295.43 530.546C1297.23 529.875 1299.16 529.539 1301.21 529.539C1302.9 529.539 1304.53 529.733 1306.08 530.122C1307.67 530.511 1309.09 531.147 1310.32 532.03C1311.56 532.949 1312.57 534.132 1313.34 535.581C1314.16 537.03 1314.63 538.814 1314.78 540.934H1305.87C1305.66 539.627 1305.2 538.637 1304.49 537.966C1303.82 537.259 1302.8 536.906 1301.42 536.906C1299.72 536.906 1298.42 537.507 1297.5 538.708C1296.58 539.874 1296.12 541.623 1296.12 543.955V544.379C1296.12 546.817 1296.58 548.654 1297.5 549.891C1298.42 551.092 1299.78 551.693 1301.58 551.693C1302.92 551.693 1304.02 551.304 1304.86 550.527C1305.71 549.75 1306.23 548.601 1306.4 547.082H1314.93C1314.79 550.58 1313.56 553.389 1311.22 555.509C1308.89 557.594 1305.48 558.636 1301 558.636Z" fill="white"/>
<path id="Vector_48" d="M1264.64 558.636C1263.4 558.636 1262.22 558.477 1261.09 558.159C1259.96 557.841 1258.97 557.346 1258.12 556.675C1257.24 556.004 1256.53 555.156 1256 554.131C1255.51 553.071 1255.26 551.799 1255.26 550.315C1255.26 547.064 1256.55 544.75 1259.13 543.372C1261.74 541.959 1265.37 541.252 1269.99 541.252H1272.64V540.616C1272.64 539.273 1272.41 538.213 1271.95 537.436C1271.5 536.623 1270.51 536.217 1268.99 536.217C1267.68 536.217 1266.74 536.553 1266.18 537.224C1265.65 537.86 1265.33 538.62 1265.22 539.503H1256.32C1256.43 537.842 1256.81 536.394 1257.49 535.157C1258.19 533.885 1259.13 532.825 1260.29 531.977C1261.43 531.164 1262.77 530.564 1264.32 530.175C1265.91 529.751 1267.66 529.539 1269.57 529.539C1271.48 529.539 1273.19 529.751 1274.71 530.175C1276.27 530.564 1277.59 531.182 1278.69 532.03C1279.78 532.878 1280.61 533.973 1281.18 535.316C1281.78 536.623 1282.08 538.196 1282.08 540.033V558H1272.86V554.767C1272.18 555.792 1271.2 556.693 1269.89 557.47C1268.62 558.247 1266.87 558.636 1264.64 558.636ZM1267.93 552.223C1269.27 552.223 1270.38 551.87 1271.27 551.163C1272.18 550.456 1272.64 549.502 1272.64 548.301V546.605H1270.15C1268.24 546.605 1266.85 546.835 1265.97 547.294C1265.08 547.718 1264.64 548.495 1264.64 549.626C1264.64 550.439 1264.91 551.075 1265.44 551.534C1265.97 551.993 1266.8 552.223 1267.93 552.223Z" fill="white"/>
<path id="Vector_49" d="M1240.4 558.636C1238.32 558.636 1236.53 558.194 1235.05 557.311C1233.6 556.392 1232.52 555.191 1231.82 553.707V558H1222.33V518.091H1231.82V534.415C1232.63 533.072 1233.74 531.924 1235.15 530.97C1236.57 530.016 1238.33 529.539 1240.45 529.539C1242.08 529.539 1243.6 529.839 1245.01 530.44C1246.43 531.04 1247.66 531.941 1248.72 533.143C1249.78 534.344 1250.61 535.846 1251.21 537.648C1251.85 539.45 1252.17 541.534 1252.17 543.902V544.326C1252.17 546.728 1251.85 548.831 1251.21 550.633C1250.61 552.399 1249.78 553.866 1248.72 555.032C1247.66 556.233 1246.41 557.134 1244.96 557.735C1243.55 558.335 1242.03 558.636 1240.4 558.636ZM1237.06 551.375C1238.86 551.375 1240.22 550.774 1241.14 549.573C1242.06 548.371 1242.52 546.622 1242.52 544.326V543.902C1242.52 541.464 1242.03 539.662 1241.04 538.496C1240.08 537.294 1238.76 536.694 1237.06 536.694C1235.33 536.694 1233.97 537.312 1232.98 538.549C1232.03 539.75 1231.55 541.517 1231.55 543.849V544.273C1231.55 546.64 1232.03 548.424 1232.98 549.626C1233.97 550.792 1235.33 551.375 1237.06 551.375Z" fill="white"/>
<path id="Vector_50" d="M1195 558.636C1191.04 558.636 1187.95 557.841 1185.72 556.251C1183.53 554.661 1182.38 552.311 1182.28 549.202H1191.02C1191.2 550.227 1191.55 551.004 1192.08 551.534C1192.65 552.064 1193.6 552.329 1194.94 552.329C1196.11 552.329 1196.96 552.135 1197.49 551.746C1198.05 551.322 1198.33 550.757 1198.33 550.05C1198.33 549.379 1197.95 548.866 1197.17 548.513C1196.43 548.16 1195.1 547.842 1193.19 547.559C1191.32 547.312 1189.71 546.994 1188.37 546.605C1187.06 546.181 1185.99 545.616 1185.14 544.909C1184.29 544.238 1183.65 543.39 1183.23 542.365C1182.84 541.34 1182.65 540.104 1182.65 538.655C1182.65 537.136 1182.96 535.811 1183.6 534.68C1184.24 533.514 1185.1 532.542 1186.2 531.765C1187.26 531.023 1188.51 530.475 1189.96 530.122C1191.41 529.733 1192.93 529.539 1194.52 529.539C1196.21 529.539 1197.77 529.698 1199.18 530.016C1200.63 530.334 1201.89 530.846 1202.95 531.553C1204.01 532.26 1204.85 533.178 1205.49 534.309C1206.16 535.44 1206.58 536.835 1206.76 538.496H1198.18C1198 537.577 1197.63 536.888 1197.06 536.429C1196.53 535.97 1195.72 535.74 1194.62 535.74C1193.6 535.74 1192.82 535.952 1192.29 536.376C1191.76 536.765 1191.5 537.277 1191.5 537.913C1191.5 538.584 1191.85 539.079 1192.56 539.397C1193.26 539.715 1194.47 539.98 1196.16 540.192C1198.07 540.439 1199.73 540.757 1201.14 541.146C1202.59 541.535 1203.79 542.065 1204.75 542.736C1205.7 543.443 1206.41 544.308 1206.87 545.333C1207.33 546.358 1207.56 547.612 1207.56 549.096C1207.56 552.382 1206.43 554.802 1204.16 556.357C1201.9 557.876 1198.85 558.636 1195 558.636Z" fill="white"/>
<path id="Vector_51" d="M1165.3 558.636C1163.11 558.636 1161.09 558.336 1159.26 557.735C1157.42 557.099 1155.85 556.18 1154.54 554.979C1153.2 553.778 1152.14 552.294 1151.36 550.527C1150.62 548.76 1150.25 546.746 1150.25 544.485V544.061C1150.25 541.835 1150.63 539.839 1151.41 538.072C1152.19 536.27 1153.25 534.733 1154.59 533.461C1155.93 532.189 1157.52 531.217 1159.36 530.546C1161.2 529.875 1163.16 529.539 1165.25 529.539C1167.15 529.539 1168.96 529.822 1170.65 530.387C1172.35 530.952 1173.85 531.818 1175.16 532.984C1176.43 534.15 1177.44 535.634 1178.18 537.436C1178.95 539.238 1179.34 541.376 1179.34 543.849V546.34H1159.84C1159.98 548.177 1160.55 549.608 1161.54 550.633C1162.56 551.622 1163.92 552.117 1165.62 552.117C1167.21 552.117 1168.35 551.799 1169.06 551.163C1169.8 550.527 1170.26 549.75 1170.44 548.831H1179.34C1178.92 551.976 1177.52 554.396 1175.16 556.092C1172.79 557.788 1169.5 558.636 1165.3 558.636ZM1170.12 540.987C1170.05 539.291 1169.61 538.001 1168.8 537.118C1167.98 536.235 1166.8 535.793 1165.25 535.793C1163.8 535.793 1162.61 536.235 1161.69 537.118C1160.78 538.001 1160.19 539.291 1159.95 540.987H1170.12Z" fill="white"/>
<path id="Vector_52" d="M1135.28 558.636C1133.2 558.636 1131.41 558.194 1129.93 557.311C1128.48 556.392 1127.4 555.191 1126.7 553.707V558H1117.21V518.091H1126.7V534.415C1127.51 533.072 1128.62 531.924 1130.03 530.97C1131.45 530.016 1133.21 529.539 1135.33 529.539C1136.96 529.539 1138.48 529.839 1139.89 530.44C1141.31 531.04 1142.54 531.941 1143.6 533.143C1144.66 534.344 1145.49 535.846 1146.09 537.648C1146.73 539.45 1147.05 541.534 1147.05 543.902V544.326C1147.05 546.728 1146.73 548.831 1146.09 550.633C1145.49 552.399 1144.66 553.866 1143.6 555.032C1142.54 556.233 1141.29 557.134 1139.84 557.735C1138.43 558.335 1136.91 558.636 1135.28 558.636ZM1131.94 551.375C1133.74 551.375 1135.1 550.774 1136.02 549.573C1136.94 548.371 1137.4 546.622 1137.4 544.326V543.902C1137.4 541.464 1136.91 539.662 1135.92 538.496C1134.96 537.294 1133.64 536.694 1131.94 536.694C1130.21 536.694 1128.85 537.312 1127.86 538.549C1126.91 539.75 1126.43 541.517 1126.43 543.849V544.273C1126.43 546.64 1126.91 548.424 1127.86 549.626C1128.85 550.792 1130.21 551.375 1131.94 551.375Z" fill="white"/>
<path id="Vector_53" d="M1092.89 558.636C1091.55 558.636 1090.31 558.424 1089.18 558C1088.05 557.611 1087.08 556.993 1086.26 556.145C1085.42 555.297 1084.74 554.237 1084.25 552.965C1083.79 551.657 1083.56 550.12 1083.56 548.354V530.281H1093.05V546.817C1093.05 548.371 1093.37 549.537 1094 550.315C1094.67 551.092 1095.66 551.481 1096.97 551.481C1098.42 551.481 1099.57 551.057 1100.41 550.209C1101.26 549.361 1101.69 548.036 1101.69 546.234V530.281H1111.17V558H1101.69V553.707C1100.94 555.155 1099.87 556.339 1098.45 557.258C1097.08 558.176 1095.22 558.636 1092.89 558.636Z" fill="white"/>
<path id="Vector_54" d="M1065.55 558.636C1063.46 558.636 1061.54 558.336 1059.77 557.735C1058.01 557.134 1056.47 556.233 1055.16 555.032C1053.85 553.866 1052.83 552.4 1052.09 550.633C1051.35 548.866 1050.97 546.817 1050.97 544.485V544.061C1050.97 541.764 1051.36 539.715 1052.14 537.913C1052.92 536.111 1053.98 534.592 1055.32 533.355C1056.66 532.118 1058.22 531.182 1059.98 530.546C1061.79 529.875 1063.71 529.539 1065.76 529.539C1067.46 529.539 1069.08 529.733 1070.64 530.122C1072.23 530.511 1073.64 531.147 1074.88 532.03C1076.11 532.949 1077.12 534.132 1077.9 535.581C1078.71 537.03 1079.19 538.814 1079.33 540.934H1070.43C1070.21 539.627 1069.75 538.637 1069.05 537.966C1068.38 537.259 1067.35 536.906 1065.97 536.906C1064.28 536.906 1062.97 537.507 1062.05 538.708C1061.13 539.874 1060.67 541.623 1060.67 543.955V544.379C1060.67 546.817 1061.13 548.654 1062.05 549.891C1062.97 551.092 1064.33 551.693 1066.13 551.693C1067.48 551.693 1068.57 551.304 1069.42 550.527C1070.27 549.75 1070.78 548.601 1070.96 547.082H1079.49C1079.35 550.58 1078.11 553.389 1075.78 555.509C1073.45 557.594 1070.04 558.636 1065.55 558.636Z" fill="white"/>
<path id="Vector_55" d="M1023.43 558.636C1021.24 558.636 1019.23 558.336 1017.39 557.735C1015.55 557.099 1013.98 556.18 1012.67 554.979C1011.33 553.778 1010.27 552.294 1009.49 550.527C1008.75 548.76 1008.38 546.746 1008.38 544.485V544.061C1008.38 541.835 1008.77 539.839 1009.54 538.072C1010.32 536.27 1011.38 534.733 1012.72 533.461C1014.07 532.189 1015.66 531.217 1017.49 530.546C1019.33 529.875 1021.29 529.539 1023.38 529.539C1025.28 529.539 1027.09 529.822 1028.78 530.387C1030.48 530.952 1031.98 531.818 1033.29 532.984C1034.56 534.15 1035.57 535.634 1036.31 537.436C1037.09 539.238 1037.47 541.376 1037.47 543.849V546.34H1017.97C1018.11 548.177 1018.68 549.608 1019.67 550.633C1020.69 551.622 1022.05 552.117 1023.75 552.117C1025.34 552.117 1026.49 551.799 1027.19 551.163C1027.93 550.527 1028.39 549.75 1028.57 548.831H1037.47C1037.05 551.976 1035.66 554.396 1033.29 556.092C1030.92 557.788 1027.63 558.636 1023.43 558.636ZM1028.25 540.987C1028.18 539.291 1027.74 538.001 1026.93 537.118C1026.12 536.235 1024.93 535.793 1023.38 535.793C1021.93 535.793 1020.74 536.235 1019.83 537.118C1018.91 538.001 1018.32 539.291 1018.08 540.987H1028.25Z" fill="white"/>
<path id="Vector_56" d="M976.375 518.091H985.862V534.733C986.604 533.284 987.717 532.065 989.201 531.076C990.72 530.051 992.646 529.539 994.978 529.539C997.663 529.539 999.836 530.404 1001.5 532.136C1003.19 533.832 1004.04 536.446 1004.04 539.98V558H994.554V541.888C994.554 540.298 994.236 539.132 993.6 538.39C992.964 537.612 991.957 537.224 990.579 537.224C989.166 537.224 988.017 537.648 987.134 538.496C986.286 539.344 985.862 540.669 985.862 542.471V558H976.375V518.091Z" fill="white"/>
<path id="Vector_57" d="M966.333 558.636C963.189 558.636 960.768 557.876 959.072 556.357C957.412 554.802 956.581 552.382 956.581 549.096V536.747H953.242V530.281H956.581V524.504H966.068V530.281H971.527V536.747H966.068V548.195C966.068 549.149 966.298 549.873 966.757 550.368C967.252 550.863 967.958 551.11 968.877 551.11C969.407 551.11 969.884 551.075 970.308 551.004C970.732 550.933 971.156 550.81 971.58 550.633V557.841C970.98 558.018 970.238 558.194 969.354 558.371C968.471 558.548 967.464 558.636 966.333 558.636Z" fill="white"/>
<path id="Vector_58" d="M934.813 558.636C931.668 558.636 929.248 557.876 927.552 556.357C925.891 554.802 925.061 552.382 925.061 549.096V536.747H921.722V530.281H925.061V524.504H934.548V530.281H940.007V536.747H934.548V548.195C934.548 549.149 934.777 549.873 935.237 550.368C935.731 550.863 936.438 551.11 937.357 551.11C937.887 551.11 938.364 551.075 938.788 551.004C939.212 550.933 939.636 550.81 940.06 550.633V557.841C939.459 558.018 938.717 558.194 937.834 558.371C936.95 558.548 935.943 558.636 934.813 558.636Z" fill="white"/>
<path id="Vector_59" d="M899.469 558.636C898.126 558.636 896.889 558.424 895.759 558C894.628 557.611 893.656 556.993 892.844 556.145C891.996 555.297 891.324 554.237 890.83 552.965C890.37 551.657 890.141 550.12 890.141 548.354V530.281H899.628V546.817C899.628 548.371 899.946 549.537 900.582 550.315C901.253 551.092 902.242 551.481 903.55 551.481C904.998 551.481 906.147 551.057 906.995 550.209C907.843 549.361 908.267 548.036 908.267 546.234V530.281H917.754V558H908.267V553.707C907.525 555.155 906.447 556.339 905.034 557.258C903.656 558.176 901.801 558.636 899.469 558.636Z" fill="white"/>
<path id="Vector_60" d="M855.831 530.281H865.318V534.415C866.131 533.072 867.244 531.924 868.657 530.97C870.07 530.016 871.837 529.539 873.957 529.539C875.582 529.539 877.102 529.839 878.515 530.44C879.928 531.041 881.165 531.942 882.225 533.143C883.285 534.344 884.115 535.846 884.716 537.648C885.352 539.45 885.67 541.535 885.67 543.902V544.326C885.67 546.729 885.352 548.831 884.716 550.633C884.115 552.4 883.285 553.866 882.225 555.032C881.165 556.233 879.911 557.134 878.462 557.735C877.049 558.336 875.529 558.636 873.904 558.636C871.784 558.636 870 558.194 868.551 557.311C867.102 556.428 866.025 555.297 865.318 553.919V567.275H855.831V530.281ZM870.565 551.375C872.367 551.375 873.727 550.774 874.646 549.573C875.565 548.372 876.024 546.623 876.024 544.326V543.902C876.024 541.464 875.529 539.662 874.54 538.496C873.586 537.295 872.261 536.694 870.565 536.694C868.834 536.694 867.473 537.312 866.484 538.549C865.53 539.75 865.053 541.517 865.053 543.849V544.273C865.053 546.64 865.53 548.425 866.484 549.626C867.473 550.792 868.834 551.375 870.565 551.375Z" fill="white"/>
<path id="Vector_61" d="M825.719 551.587C827.521 551.587 828.881 550.969 829.8 549.732C830.719 548.46 831.178 546.658 831.178 544.326V543.902C831.178 541.57 830.719 539.786 829.8 538.549C828.881 537.277 827.521 536.641 825.719 536.641C823.917 536.641 822.539 537.259 821.585 538.496C820.666 539.697 820.207 541.464 820.207 543.796V544.22C820.207 546.623 820.666 548.46 821.585 549.732C822.504 550.969 823.881 551.587 825.719 551.587ZM825.666 558.636C823.546 558.636 821.549 558.318 819.677 557.682C817.839 557.046 816.249 556.127 814.907 554.926C813.529 553.725 812.451 552.241 811.674 550.474C810.896 548.707 810.508 546.711 810.508 544.485V544.061C810.508 541.835 810.896 539.839 811.674 538.072C812.451 536.27 813.529 534.733 814.907 533.461C816.249 532.189 817.839 531.217 819.677 530.546C821.549 529.875 823.563 529.539 825.719 529.539C827.839 529.539 829.817 529.875 831.655 530.546C833.527 531.182 835.135 532.118 836.478 533.355C837.82 534.592 838.881 536.093 839.658 537.86C840.435 539.627 840.824 541.605 840.824 543.796V544.22C840.824 546.481 840.435 548.513 839.658 550.315C838.881 552.082 837.82 553.583 836.478 554.82C835.1 556.057 833.475 557.011 831.602 557.682C829.765 558.318 827.786 558.636 825.666 558.636Z" fill="white"/>
<path id="Vector_62" d="M801.95 558.636C798.806 558.636 796.385 557.876 794.689 556.357C793.029 554.802 792.198 552.382 792.198 549.096V536.747H788.859V530.281H792.198V524.504H801.685V530.281H807.144V536.747H801.685V548.195C801.685 549.149 801.915 549.873 802.374 550.368C802.869 550.863 803.576 551.11 804.494 551.11C805.024 551.11 805.501 551.075 805.925 551.004C806.349 550.933 806.773 550.81 807.197 550.633V557.841C806.597 558.018 805.855 558.194 804.971 558.371C804.088 558.548 803.081 558.636 801.95 558.636Z" fill="white"/>
<path id="Vector_63" d="M761.898 558.636C759.707 558.636 757.693 558.336 755.856 557.735C754.018 557.099 752.446 556.18 751.139 554.979C749.796 553.778 748.736 552.294 747.959 550.527C747.217 548.76 746.846 546.746 746.846 544.485V544.061C746.846 541.835 747.234 539.839 748.012 538.072C748.789 536.27 749.849 534.733 751.192 533.461C752.534 532.189 754.124 531.217 755.962 530.546C757.799 529.875 759.76 529.539 761.845 529.539C763.753 529.539 765.555 529.822 767.251 530.387C768.947 530.952 770.448 531.818 771.756 532.984C773.028 534.15 774.035 535.634 774.777 537.436C775.554 539.238 775.943 541.376 775.943 543.849V546.34H756.439C756.58 548.177 757.145 549.608 758.135 550.633C759.159 551.622 760.52 552.117 762.216 552.117C763.806 552.117 764.954 551.799 765.661 551.163C766.403 550.527 766.862 549.75 767.039 548.831H775.943C775.519 551.976 774.123 554.396 771.756 556.092C769.388 557.788 766.102 558.636 761.898 558.636ZM766.721 540.987C766.65 539.291 766.208 538.001 765.396 537.118C764.583 536.235 763.399 535.793 761.845 535.793C760.396 535.793 759.212 536.235 758.294 537.118C757.375 538.001 756.792 539.291 756.545 540.987H766.721Z" fill="white"/>
<path id="Vector_64" d="M725.505 530.281H734.992V535.793C735.875 533.708 737.041 532.207 738.49 531.288C739.974 530.334 741.794 529.875 743.949 529.91V538.761C741.052 538.69 738.826 539.132 737.271 540.086C735.752 541.04 734.992 542.63 734.992 544.856V558H725.505V530.281Z" fill="white"/>
<path id="Vector_65" d="M701.185 558.636C699.843 558.636 698.606 558.424 697.475 558C696.345 557.611 695.373 556.993 694.56 556.145C693.712 555.297 693.041 554.237 692.546 552.965C692.087 551.657 691.857 550.12 691.857 548.354V530.281H701.344V546.817C701.344 548.371 701.662 549.537 702.298 550.315C702.97 551.092 703.959 551.481 705.266 551.481C706.715 551.481 707.863 551.057 708.711 550.209C709.559 549.361 709.983 548.036 709.983 546.234V530.281H719.47V558H709.983V553.707C709.241 555.155 708.164 556.339 706.75 557.258C705.372 558.176 703.517 558.636 701.185 558.636Z" fill="white"/>
<path id="Vector_66" d="M675.192 558.636C671.234 558.636 668.143 557.841 665.917 556.251C663.726 554.661 662.578 552.311 662.472 549.202H671.217C671.393 550.227 671.747 551.004 672.277 551.534C672.842 552.064 673.796 552.329 675.139 552.329C676.305 552.329 677.153 552.135 677.683 551.746C678.248 551.322 678.531 550.757 678.531 550.05C678.531 549.379 678.142 548.866 677.365 548.513C676.623 548.16 675.298 547.842 673.39 547.559C671.517 547.312 669.909 546.994 668.567 546.605C667.259 546.181 666.182 545.616 665.334 544.909C664.486 544.238 663.85 543.39 663.426 542.365C663.037 541.34 662.843 540.104 662.843 538.655C662.843 537.136 663.161 535.811 663.797 534.68C664.433 533.514 665.298 532.542 666.394 531.765C667.454 531.023 668.708 530.475 670.157 530.122C671.605 529.733 673.125 529.539 674.715 529.539C676.411 529.539 677.965 529.698 679.379 530.016C680.827 530.334 682.082 530.846 683.142 531.553C684.202 532.26 685.05 533.178 685.686 534.309C686.357 535.44 686.781 536.835 686.958 538.496H678.372C678.195 537.577 677.824 536.888 677.259 536.429C676.729 535.97 675.916 535.74 674.821 535.74C673.796 535.74 673.019 535.952 672.489 536.376C671.959 536.765 671.694 537.277 671.694 537.913C671.694 538.584 672.047 539.079 672.754 539.397C673.46 539.715 674.662 539.98 676.358 540.192C678.266 540.439 679.926 540.757 681.34 541.146C682.788 541.535 683.99 542.065 684.944 542.736C685.898 543.443 686.604 544.308 687.064 545.333C687.523 546.358 687.753 547.612 687.753 549.096C687.753 552.382 686.622 554.802 684.361 556.357C682.099 557.876 679.043 558.636 675.192 558.636Z" fill="white"/>
<path id="Vector_67" d="M635.298 558.636C633.107 558.636 631.093 558.336 629.256 557.735C627.419 557.099 625.846 556.18 624.539 554.979C623.196 553.778 622.136 552.294 621.359 550.527C620.617 548.76 620.246 546.746 620.246 544.485V544.061C620.246 541.835 620.635 539.839 621.412 538.072C622.189 536.27 623.249 534.733 624.592 533.461C625.935 532.189 627.525 531.217 629.362 530.546C631.199 529.875 633.16 529.539 635.245 529.539C637.153 529.539 638.955 529.822 640.651 530.387C642.347 530.952 643.849 531.818 645.156 532.984C646.428 534.15 647.435 535.634 648.177 537.436C648.954 539.238 649.343 541.376 649.343 543.849V546.34H629.839C629.98 548.177 630.546 549.608 631.535 550.633C632.56 551.622 633.92 552.117 635.616 552.117C637.206 552.117 638.354 551.799 639.061 551.163C639.803 550.527 640.262 549.75 640.439 548.831H649.343C648.919 551.976 647.523 554.396 645.156 556.092C642.789 557.788 639.503 558.636 635.298 558.636ZM640.121 540.987C640.05 539.291 639.609 538.001 638.796 537.118C637.983 536.235 636.8 535.793 635.245 535.793C633.796 535.793 632.613 536.235 631.694 537.118C630.775 538.001 630.192 539.291 629.945 540.987H640.121Z" fill="white"/>
<path id="Vector_68" d="M592.073 518.091H601.56V541.252L609.033 530.281H618.891L609.828 542.736L619.633 558H609.033L601.56 545.863V558H592.073V518.091Z" fill="white"/>
<path id="Vector_69" d="M568.809 558.636C567.572 558.636 566.388 558.477 565.258 558.159C564.127 557.841 563.138 557.346 562.29 556.675C561.406 556.004 560.7 555.156 560.17 554.131C559.675 553.071 559.428 551.799 559.428 550.315C559.428 547.064 560.717 544.75 563.297 543.372C565.911 541.959 569.533 541.252 574.162 541.252H576.812V540.616C576.812 539.273 576.582 538.213 576.123 537.436C575.663 536.623 574.674 536.217 573.155 536.217C571.847 536.217 570.911 536.553 570.346 537.224C569.816 537.86 569.498 538.62 569.392 539.503H560.488C560.594 537.842 560.982 536.394 561.654 535.157C562.36 533.885 563.297 532.825 564.463 531.977C565.593 531.164 566.936 530.564 568.491 530.175C570.081 529.751 571.83 529.539 573.738 529.539C575.646 529.539 577.359 529.751 578.879 530.175C580.433 530.564 581.758 531.182 582.854 532.03C583.949 532.878 584.779 533.973 585.345 535.316C585.945 536.623 586.246 538.196 586.246 540.033V558H577.024V554.767C576.352 555.792 575.363 556.693 574.056 557.47C572.784 558.247 571.035 558.636 568.809 558.636ZM572.095 552.223C573.437 552.223 574.55 551.87 575.434 551.163C576.352 550.456 576.812 549.502 576.812 548.301V546.605H574.321C572.413 546.605 571.017 546.835 570.134 547.294C569.25 547.718 568.809 548.495 568.809 549.626C568.809 550.439 569.074 551.075 569.604 551.534C570.134 551.993 570.964 552.223 572.095 552.223Z" fill="white"/>
<path id="Vector_70" d="M511.765 520.105H525.916L533.177 540.298L540.438 520.105H554.324V558H543.512V534.415L534.237 558H530.633L521.464 534.415V558H511.765V520.105Z" fill="white"/>
<path id="Vector_71" d="M1258.6 442.932C1251.44 442.932 1247.2 441.077 1247.2 436.254V435.194L1253.3 430.901C1249.69 429.947 1248.53 427.933 1248.53 425.442V424.594L1253.93 420.778C1250.65 419.506 1248.53 416.856 1248.53 413.517C1248.58 408.8 1252.18 406.044 1259.34 404.189C1263.58 404.189 1266.65 405.991 1268.08 408.641L1270.73 404.189H1273.7V409.383H1269.51L1268.72 409.966C1268.98 410.602 1269.14 411.344 1269.14 412.139C1269.09 416.962 1265.65 419.718 1258.44 421.626C1257.32 421.626 1256.21 421.467 1255.31 421.202L1253.19 423.534C1253.19 425.23 1254.3 425.972 1255.95 425.972H1265.96C1270.2 425.972 1272.38 428.357 1272.38 431.431C1272.38 436.519 1266.55 440.335 1258.6 442.932ZM1259.23 419.718C1261.83 419.718 1263.21 417.439 1263.21 413.676C1263.21 409.807 1262.04 406.097 1258.44 406.097C1255.84 406.097 1254.46 408.429 1254.46 412.298C1254.46 416.061 1255.63 419.718 1259.23 419.718ZM1259.39 439.646C1264.43 439.646 1267.87 437.102 1267.87 434.081C1267.87 432.226 1266.65 431.113 1263.68 431.113H1254.67C1252.82 432.862 1252.5 434.134 1252.5 435.194C1252.5 437.791 1254.89 439.699 1259.39 439.646Z" fill="white"/>
<path id="Vector_72" d="M1224.03 429.947L1217.83 430.053L1217.72 428.622L1220.95 428.145V407.528L1217.61 408.005L1217.46 406.521L1225.19 404.719L1226.89 404.666L1227 409.701L1235.74 404.189C1241.52 404.189 1242.84 406.468 1242.84 412.298V428.145L1246.39 428.622L1246.29 430.053L1239.93 429.947L1234.42 430.053L1234.26 428.622L1236.64 428.145V412.139C1236.64 409.489 1235.58 408.429 1233.57 408.429C1231.82 408.429 1230.39 409.383 1228.64 410.496L1227.05 411.503V428.145L1229.49 428.622L1229.38 430.053L1224.03 429.947Z" fill="white"/>
<path id="Vector_73" d="M1211.1 399.101L1206.86 399.419L1205.32 399.101L1205 395.868L1205.58 393.218L1209.77 392.953L1211.36 393.218L1211.68 396.345L1211.1 399.101ZM1208.45 429.947L1202.3 430.053L1202.14 428.622L1205.43 428.145V407.475L1202.09 407.952L1201.93 406.521L1209.67 404.719L1211.47 404.666V428.145L1214.81 428.622L1214.7 430.053L1208.45 429.947Z" fill="white"/>
<path id="Vector_74" d="M1200.05 426.873L1192.74 430.795C1187.97 430.795 1186.01 428.145 1186.01 423.534V407.263H1181.66V406.786L1182.67 405.461H1186.06V401.751L1191.09 398.253H1192.05V405.62H1199.41V407.263H1192.1V423.481C1192.1 425.654 1193.32 426.82 1195.02 426.82C1196.5 426.82 1197.67 426.449 1199.36 425.548L1200.05 426.873Z" fill="white"/>
<path id="Vector_75" d="M1172.14 426.078L1165.41 430.795C1160.96 430.795 1157.72 428.357 1157.72 424.117C1157.72 422.156 1158.47 420.354 1160.27 418.764L1171.93 415.001V411.609C1171.93 408.535 1171.56 406.786 1168.38 406.786C1167.26 406.786 1166.31 406.998 1165.09 407.475L1164.08 412.775H1158.57V408.588L1168.91 404.189C1175.9 404.189 1178.13 406.203 1178.13 412.245V423.216C1178.13 425.124 1178.45 426.343 1178.92 427.562L1181.57 427.403L1181.79 428.781L1173.57 430.424L1172.14 426.078ZM1167.11 427.032C1168.43 427.032 1169.7 426.29 1170.44 425.76L1171.93 424.753V416.432L1165.73 418.923C1164.61 419.877 1163.98 421.308 1163.98 423.004C1163.98 425.654 1165.41 427.032 1167.11 427.032Z" fill="white"/>
<path id="Vector_76" d="M1134.42 442.137L1128.16 442.243L1128.06 440.812L1131.34 440.335V407.475L1128 407.952L1127.84 406.521L1135.37 404.772L1137.07 404.666L1137.33 409.383L1144.54 404.189C1150.32 404.189 1154.61 408.959 1154.61 416.008C1154.61 424.117 1150.47 429.152 1141.89 430.795C1140.25 430.795 1138.66 430.424 1137.38 429.576V440.335L1142.37 440.812L1142.26 442.243L1134.42 442.137ZM1141.89 428.728C1145.6 428.728 1148.09 424.7 1148.09 418.287C1148.09 412.245 1145.97 408.482 1142.68 408.482C1141.2 408.482 1140.14 409.277 1138.5 410.39L1137.38 411.132V426.449C1138.34 427.88 1139.93 428.728 1141.89 428.728Z" fill="white"/>
<path id="Vector_77" d="M1122.28 399.101L1118.04 399.419L1116.5 399.101L1116.19 395.868L1116.77 393.218L1120.96 392.953L1122.55 393.218L1122.86 396.345L1122.28 399.101ZM1119.63 429.947L1113.48 430.053L1113.32 428.622L1116.61 428.145V407.475L1113.27 407.952L1113.11 406.521L1120.85 404.719L1122.65 404.666V428.145L1125.99 428.622L1125.88 430.053L1119.63 429.947Z" fill="white"/>
<path id="Vector_78" d="M1101.24 430.795C1094.24 430.795 1089.05 426.131 1089.05 418.393C1089.05 410.019 1095.25 405.673 1102.08 404.189C1104.73 404.189 1107.91 405.461 1109.66 406.945V412.563H1104.79L1103.2 406.839C1102.51 406.468 1101.92 406.362 1101.08 406.362C1097.9 406.362 1095.09 409.436 1095.09 415.637C1095.09 421.626 1098.37 426.237 1103.57 426.237C1105.79 426.237 1107.7 425.389 1109.5 424.117L1110.19 425.389C1107.49 427.721 1104.84 429.364 1101.24 430.795Z" fill="white"/>
<path id="Vector_79" d="M1083.51 399.101L1079.27 399.419L1077.74 399.101L1077.42 395.868L1078 393.218L1082.19 392.953L1083.78 393.218L1084.1 396.345L1083.51 399.101ZM1080.86 429.947L1074.72 430.053L1074.56 428.622L1077.84 428.145V407.475L1074.5 407.952L1074.34 406.521L1082.08 404.719L1083.88 404.666V428.145L1087.22 428.622L1087.12 430.053L1080.86 429.947Z" fill="white"/>
<path id="Vector_80" d="M1072.47 426.873L1065.15 430.795C1060.38 430.795 1058.42 428.145 1058.42 423.534V407.263H1054.08V406.786L1055.08 405.461H1058.48V401.751L1063.51 398.253H1064.46V405.62H1071.83V407.263H1064.52V423.481C1064.52 425.654 1065.74 426.82 1067.43 426.82C1068.92 426.82 1070.08 426.449 1071.78 425.548L1072.47 426.873Z" fill="white"/>
<path id="Vector_81" d="M1040.81 429.947L1034.55 430.053L1034.39 428.622L1037.68 428.145V407.475L1034.34 407.952L1034.18 406.521L1041.6 404.719L1043.19 404.666L1043.51 412.722L1048.91 404.454H1053.05V410.708H1047.54C1046.9 410.92 1044.89 413.305 1044.14 414.153L1043.72 414.63V428.092L1048.86 428.569L1048.7 430.053L1040.81 429.947Z" fill="white"/>
<path id="Vector_82" d="M1022.66 426.078L1015.93 430.795C1011.48 430.795 1008.25 428.357 1008.25 424.117C1008.25 422.156 1008.99 420.354 1010.79 418.764L1022.45 415.001V411.609C1022.45 408.535 1022.08 406.786 1018.9 406.786C1017.79 406.786 1016.83 406.998 1015.62 407.475L1014.61 412.775H1009.1V408.588L1019.43 404.189C1026.43 404.189 1028.65 406.203 1028.65 412.245V423.216C1028.65 425.124 1028.97 426.343 1029.45 427.562L1032.1 427.403L1032.31 428.781L1024.1 430.424L1022.66 426.078ZM1017.63 427.032C1018.95 427.032 1020.23 426.29 1020.97 425.76L1022.45 424.753V416.432L1016.25 418.923C1015.14 419.877 1014.5 421.308 1014.5 423.004C1014.5 425.654 1015.93 427.032 1017.63 427.032Z" fill="white"/>
<path id="Vector_83" d="M984.939 442.137L978.685 442.243L978.579 440.812L981.865 440.335V407.475L978.526 407.952L978.367 406.521L985.893 404.772L987.589 404.666L987.854 409.383L995.062 404.189C1000.84 404.189 1005.13 408.959 1005.13 416.008C1005.13 424.117 1001 429.152 992.412 430.795C990.769 430.795 989.179 430.424 987.907 429.576V440.335L992.889 440.812L992.783 442.243L984.939 442.137ZM992.412 428.728C996.122 428.728 998.613 424.7 998.613 418.287C998.613 412.245 996.493 408.482 993.207 408.482C991.723 408.482 990.663 409.277 989.02 410.39L987.907 411.132V426.449C988.861 427.88 990.451 428.728 992.412 428.728Z" fill="white"/>
<path id="Vector_84" d="M951.938 429.947L945.684 430.053L945.525 428.622L948.811 428.145V407.475L945.471 407.952L945.312 406.521L952.733 404.719L954.323 404.666L954.641 412.722L960.047 404.454H964.181V410.708H958.669C958.033 410.92 956.018 413.305 955.276 414.153L954.853 414.63V428.092L959.993 428.569L959.835 430.053L951.938 429.947Z" fill="white"/>
<path id="Vector_85" d="M929.543 430.795C922.759 430.795 917.883 425.548 917.883 418.128C917.883 409.701 923.448 405.832 931.239 404.189C938.076 404.189 942.952 409.436 942.952 416.856C942.952 425.283 937.387 429.205 929.543 430.795ZM931.027 428.728C934.525 428.728 936.433 425.018 936.433 418.711C936.433 410.655 933.518 406.309 929.702 406.309C926.204 406.309 924.296 409.913 924.296 416.326C924.296 423.852 927.158 428.728 931.027 428.728Z" fill="white"/>
<path id="Vector_86" d="M907.265 429.947L901.223 430.053L901.064 428.622L904.456 428.145V407.316H900.534V406.786L901.435 405.461H904.456V404.878C904.456 401.698 905.304 399.684 907.318 397.67L912.671 392.37H919.031V396.928H911.717L911.187 397.935C910.657 399.154 910.498 400.585 910.498 403.818V405.567H917.123V407.316H910.498V428.145L916.01 428.569L915.904 430.053L907.265 429.947Z" fill="white"/>
<path id="Vector_87" d="M876.172 425.548L867.904 430.795C861.968 430.795 860.59 428.463 860.59 422.739V407.528L857.357 407.846L857.198 406.309L864.83 404.825L866.791 404.719V422.686C866.791 425.389 867.851 426.555 869.971 426.555C871.455 426.555 872.78 425.76 874.476 424.7L876.013 423.746V407.528L872.939 407.846L872.78 406.309L880.094 404.825L882.055 404.719V423.057C882.055 425.177 882.32 426.29 882.744 427.615L885.235 427.456L885.394 428.887L877.391 430.371L876.172 425.548Z" fill="white"/>
<path id="Vector_88" d="M841.813 430.795C835.029 430.795 830.153 425.548 830.153 418.128C830.153 409.701 835.718 405.832 843.509 404.189C850.346 404.189 855.222 409.436 855.222 416.856C855.222 425.283 849.657 429.205 841.813 430.795ZM843.297 428.728C846.795 428.728 848.703 425.018 848.703 418.711C848.703 410.655 845.788 406.309 841.972 406.309C838.474 406.309 836.566 409.913 836.566 416.326C836.566 423.852 839.428 428.728 843.297 428.728Z" fill="white"/>
<path id="Vector_89" d="M813.715 442.455H806.878V436.519H812.814L818.273 428.039L813.927 429.682L805.341 406.839L802.585 406.415L802.744 404.984L809.051 405.037L814.987 404.984L815.093 406.415L812.072 406.839L818.432 424.382L818.697 426.449L825.269 406.839L821.877 406.415L821.983 404.984L826.859 405.037L830.834 404.984L830.94 406.415L827.919 406.839L820.022 428.357L813.715 442.455Z" fill="white"/>
<path id="Vector_90" d="M767.933 429.947L761.785 430.053L761.679 428.622L764.912 428.145V395.073L761.679 395.391L761.467 393.907L769.152 392.264L770.954 392.211V415.743L771.696 415.425L782.031 406.839L779.063 406.415V404.984L783.727 405.037L788.179 404.984L788.338 406.415L784.999 406.839L774.134 415.531H777.049L787.225 428.145L789.451 428.622L789.292 430.053L784.363 429.947L780.812 430.053L771.378 417.333L770.954 416.432V428.145L773.816 428.622L773.657 430.053L767.933 429.947Z" fill="white"/>
<path id="Vector_91" d="M737.09 429.947L730.889 430.053L730.783 428.622L734.016 428.145V407.528L730.677 408.005L730.518 406.521L738.256 404.719L739.952 404.666L740.058 409.701L748.803 404.189C754.58 404.189 755.905 406.468 755.905 412.298V428.145L759.456 428.622L759.35 430.053L752.99 429.947L747.478 430.053L747.319 428.622L749.704 428.145V412.139C749.704 409.489 748.644 408.429 746.63 408.429C744.881 408.429 743.45 409.383 741.701 410.496L740.111 411.503V428.145L742.549 428.622L742.443 430.053L737.09 429.947Z" fill="white"/>
<path id="Vector_92" d="M719.001 426.078L712.27 430.795C707.818 430.795 704.585 428.357 704.585 424.117C704.585 422.156 705.327 420.354 707.129 418.764L718.789 415.001V411.609C718.789 408.535 718.418 406.786 715.238 406.786C714.125 406.786 713.171 406.998 711.952 407.475L710.945 412.775H705.433V408.588L715.768 404.189C722.764 404.189 724.99 406.203 724.99 412.245V423.216C724.99 425.124 725.308 426.343 725.785 427.562L728.435 427.403L728.647 428.781L720.432 430.424L719.001 426.078ZM713.966 427.032C715.291 427.032 716.563 426.29 717.305 425.76L718.789 424.753V416.432L712.588 418.923C711.475 419.877 710.839 421.308 710.839 423.004C710.839 425.654 712.27 427.032 713.966 427.032Z" fill="white"/>
<path id="Vector_93" d="M662.07 429.947L653.431 430.053L653.325 428.622L658.625 428.092V394.702L651.629 394.808L648.343 403.235H646.859V392.847H675.532L681.203 392.211H682.793V409.648L691.485 404.189C696.997 404.189 698.587 406.256 698.587 412.457V428.145L702.138 428.622L701.979 430.053L695.619 429.947L690.16 430.053L690.054 428.622L692.386 428.145V412.139C692.386 409.542 691.379 408.429 689.365 408.429C687.722 408.429 686.238 409.33 684.383 410.496L682.793 411.45V428.145L685.231 428.622L685.125 430.053L679.825 429.947L673.783 430.053L673.624 428.622L676.698 428.145V394.543L675.585 394.755L665.356 394.702V428.092L670.55 428.622L670.391 430.053L662.07 429.947Z" fill="white"/>
</g>
<g id="Button/">
<g id="animation/">
<g id="checked/">
<g id="Button/_2">
<path id="arrow/" d="M1733.41 787.95L1784.95 839.5L1733.41 891.05" stroke="white" stroke-width="8" stroke-miterlimit="10" stroke-linecap="round"/>
<circle id="circle/" cx="1747.5" cy="839.5" r="86.5" stroke="white" stroke-opacity="0.99" stroke-width="2"/>
</g>
<text id="Text/" fill="white" xml:space="preserve" style="white-space: pre" font-family="Graphik" font-size="47" font-weight="300" letter-spacing="0em"><tspan x="1671.18" y="998.446">Restart</tspan></text>
</g>
<g id="unchecked/">
<g id="Button/_3">
<path id="arrow/_2" d="M1781 835L1785 839.5L1781 844" stroke="white" stroke-opacity="0.01" stroke-width="8" stroke-miterlimit="10" stroke-linecap="round"/>
<circle id="circle/_2" cx="1747.5" cy="839.5" r="86.5" stroke="white" stroke-opacity="0.01" stroke-width="2"/>
</g>
<text id="Text/_2" fill="white" fill-opacity="0.01" xml:space="preserve" style="white-space: pre" font-family="Graphik" font-size="47" font-weight="300" letter-spacing="0em"><tspan x="1671.18" y="998.446">Restart</tspan></text>
</g>
</g>
</g>
<g id="Modal/ErrorView" opacity="0.01">
<rect width="1920" height="1080" fill="black" fill-opacity="0.5"/>
<g id="Modal/ErrorMessage" filter="url(#filter0_ddd_126_2430)">
<rect x="482" y="323" width="956" height="484.212" rx="4.59615" fill="white"/>
<g id="content">
<g id="CloseCircle" clip-path="url(#clip1_126_2430)">
<path id="Vector_94" d="M590.601 412.95C590.601 412.702 590.398 412.499 590.149 412.499L586.425 412.515L580.816 419.202L575.213 412.521L571.484 412.504C571.235 412.504 571.032 412.702 571.032 412.956C571.032 413.063 571.072 413.164 571.139 413.249L578.48 421.995L571.139 430.735C571.071 430.818 571.033 430.922 571.032 431.029C571.032 431.277 571.235 431.48 571.484 431.48L575.213 431.463L580.816 424.777L586.42 431.458L590.144 431.475C590.392 431.475 590.595 431.277 590.595 431.023C590.595 430.916 590.556 430.814 590.488 430.73L583.158 421.989L590.499 413.243C590.567 413.164 590.601 413.057 590.601 412.95Z" fill="#FF4D4F"/>
<path id="Vector_95" d="M580.817 396.594C566.857 396.594 555.538 407.913 555.538 421.873C555.538 435.833 566.857 447.152 580.817 447.152C594.777 447.152 606.096 435.833 606.096 421.873C606.096 407.913 594.777 396.594 580.817 396.594ZM580.817 442.864C569.227 442.864 559.826 433.463 559.826 421.873C559.826 410.283 569.227 400.883 580.817 400.883C592.407 400.883 601.807 410.283 601.807 421.873C601.807 433.463 592.407 442.864 580.817 442.864Z" fill="#FF4D4F"/>
</g>
<g id="right" clip-path="url(#clip2_126_2430)">
<text id="title" fill="black" fill-opacity="0.85" xml:space="preserve" style="white-space: pre" font-family="Inter" font-size="36.7692" font-weight="500" letter-spacing="0em"><tspan x="642.865" y="437.486">Safety Stop</tspan></text>
<g id="content_2">
<text fill="black" fill-opacity="0.85" xml:space="preserve" style="white-space: pre" font-family="Inter" font-size="32.1731" letter-spacing="0em"><tspan x="642.865" y="507.901">Robot is stopped due to a safety stop, to reset </tspan><tspan x="642.865" y="558.459">the robot press </tspan><tspan x="1083.27" y="558.459"> on the </tspan><tspan x="642.865" y="609.017">touchscreen on the right.</tspan></text>
<text fill="black" fill-opacity="0.85" xml:space="preserve" style="white-space: pre" font-family="Inter" font-size="32.1731" font-weight="bold" letter-spacing="0em"><tspan x="884.697" y="558.459">enable robot</tspan></text>
</g>
</g>
</g>
<g id="Button-Group">
<g id="button/buttonModal" filter="url(#filter1_d_126_2430)">
<rect x="1170.92" y="678.077" width="193.538" height="73.9808" rx="4.59615" fill="#1890FF"/>
<rect x="1172.07" y="679.226" width="191.24" height="71.6827" rx="3.44712" stroke="#1890FF" stroke-width="2.29808"/>
<text id="text" fill="white" xml:space="preserve" style="white-space: pre" font-family="Inter" font-size="32.1731" letter-spacing="0em"><tspan x="1207.89" y="726.546">-&#62; Done</tspan></text>
</g>
</g>
</g>
</g>
</g>
<defs>
<filter id="filter0_ddd_126_2430" x="399.269" y="260.952" width="1121.46" height="649.673" filterUnits="userSpaceOnUse" color-interpolation-filters="sRGB">
<feFlood flood-opacity="0" result="BackgroundImageFix"/>
<feColorMatrix in="SourceAlpha" type="matrix" values="0 0 0 0 0 0 0 0 0 0 0 0 0 0 0 0 0 0 127 0" result="hardAlpha"/>
<feMorphology radius="18.3846" operator="dilate" in="SourceAlpha" result="effect1_dropShadow_126_2430"/>
<feOffset dy="20.6827"/>
<feGaussianBlur stdDeviation="32.1731"/>
<feColorMatrix type="matrix" values="0 0 0 0 0 0 0 0 0 0 0 0 0 0 0 0 0 0 0.05 0"/>
<feBlend mode="normal" in2="BackgroundImageFix" result="effect1_dropShadow_126_2430"/>
<feColorMatrix in="SourceAlpha" type="matrix" values="0 0 0 0 0 0 0 0 0 0 0 0 0 0 0 0 0 0 127 0" result="hardAlpha"/>
<feOffset dy="13.7885"/>
<feGaussianBlur stdDeviation="18.3846"/>
<feColorMatrix type="matrix" values="0 0 0 0 0 0 0 0 0 0 0 0 0 0 0 0 0 0 0.08 0"/>
<feBlend mode="normal" in2="effect1_dropShadow_126_2430" result="effect2_dropShadow_126_2430"/>
<feColorMatrix in="SourceAlpha" type="matrix" values="0 0 0 0 0 0 0 0 0 0 0 0 0 0 0 0 0 0 127 0" result="hardAlpha"/>
<feMorphology radius="9.19231" operator="erode" in="SourceAlpha" result="effect3_dropShadow_126_2430"/>
<feOffset dy="6.89423"/>
<feGaussianBlur stdDeviation="6.89423"/>
<feColorMatrix type="matrix" values="0 0 0 0 0 0 0 0 0 0 0 0 0 0 0 0 0 0 0.12 0"/>
<feBlend mode="normal" in2="effect2_dropShadow_126_2430" result="effect3_dropShadow_126_2430"/>
<feBlend mode="normal" in="SourceGraphic" in2="effect3_dropShadow_126_2430" result="shape"/>
</filter>
<filter id="filter1_d_126_2430" x="1170.92" y="678.077" width="193.538" height="78.5771" filterUnits="userSpaceOnUse" color-interpolation-filters="sRGB">
<feFlood flood-opacity="0" result="BackgroundImageFix"/>
<feColorMatrix in="SourceAlpha" type="matrix" values="0 0 0 0 0 0 0 0 0 0 0 0 0 0 0 0 0 0 127 0" result="hardAlpha"/>
<feOffset dy="4.59615"/>
<feColorMatrix type="matrix" values="0 0 0 0 0 0 0 0 0 0 0 0 0 0 0 0 0 0 0.043 0"/>
<feBlend mode="normal" in2="BackgroundImageFix" result="effect1_dropShadow_126_2430"/>
<feBlend mode="normal" in="SourceGraphic" in2="effect1_dropShadow_126_2430" result="shape"/>
</filter>
<clipPath id="clip0_126_2430">
<rect width="1920" height="1080" fill="white"/>
</clipPath>
<clipPath id="clip1_126_2430">
<rect width="50.5577" height="50.5577" fill="white" transform="translate(555.538 396.539)"/>
</clipPath>
<clipPath id="clip2_126_2430">
<rect width="721.596" height="226.385" fill="white" transform="translate(642.865 396.539)"/>
</clipPath>
</defs>
</svg>
