<svg width="912" height="1596" viewBox="0 0 912 1596" fill="none" xmlns="http://www.w3.org/2000/svg">
<g id="D3Figma-All" clip-path="url(#clip0_153_1426)">
<g id="d3g/master">
<g id="Rectangle 1">
<mask id="path-1-inside-1_153_1426" fill="white">
<path d="M126 20H783V36H126V20Z"/>
</mask>
<path d="M126 20H783V36H126V20Z" fill="#202020"/>
<path d="M126 21H783V19H126V21Z" fill="#313131" mask="url(#path-1-inside-1_153_1426)"/>
</g>
<g id="Rectangle 2">
<mask id="path-3-inside-2_153_1426" fill="white">
<path d="M0 20H349V36H0V20Z"/>
</mask>
<path d="M0 20H349V36H0V20Z" fill="#262727"/>
<path d="M349 20H350V19H349V20ZM0 21H349V19H0V21ZM348 20V36H350V20H348Z" fill="#313131" mask="url(#path-3-inside-2_153_1426)"/>
</g>
<g id="Rectangle 3">
<mask id="path-5-inside-3_153_1426" fill="white">
<path d="M783 20H912V36H783V20Z"/>
</mask>
<path d="M783 20H912V36H783V20Z" fill="#262727"/>
<path d="M912 20H913V19H912V20ZM783 21H912V19H783V21ZM911 20V36H913V20H911Z" fill="#313131" mask="url(#path-5-inside-3_153_1426)"/>
</g>
<g id="topicBox">
<text id="topicText/" fill="#9C9C9C" xml:space="preserve" style="white-space: pre" font-family="Inter" font-size="10" letter-spacing="0em"><tspan x="5" y="31.1364">dimension/width</tspan></text>
</g>
<g id="d3Box/" clip-path="url(#clip1_153_1426)">
<rect id="d3element/1" x="349" y="21" width="434" height="15" fill="#202020"/>
</g>
<g id="valueBox" clip-path="url(#clip2_153_1426)">
<text id="valueText/masterValue" fill="#9C9C9C" xml:space="preserve" style="white-space: pre" font-family="Inter" font-size="10" letter-spacing="0em"><tspan x="792" y="32.1364">0</tspan></text>
</g>
<circle id="activeDot/" cx="787" cy="28" r="2" fill="#2D8CEB"/>
<g id="sendButton/">
<rect x="895" y="21" width="12" height="14" rx="6" fill="white" fill-opacity="0.01"/>
<path id="Polygon 1" d="M904 27L899.5 29.5981L899.5 24.4019L904 27Z" fill="#D9D9D9"/>
</g>
</g>
<text id="d3_time" fill="#2D8CEB" xml:space="preserve" style="white-space: pre" font-family="Inter" font-size="8" letter-spacing="0em"><tspan x="236.781" y="7.90909">1,02s</tspan></text>
<g id="d3TextItem" opacity="0.01">
<rect id="Rectangle 130" x="-5" y="1" width="100" height="15" fill="url(#paint0_linear_153_1426)"/>
<text id="&#226;&#128;&#156;start&#226;&#128;&#157;" fill="#9C9C9C" xml:space="preserve" style="white-space: pre" font-family="Inter" font-size="10" letter-spacing="0em"><tspan x="-1.9895" y="12.6364">1,arrow_sb,25,2</tspan></text>
<text id="T" fill="#B35EAA" xml:space="preserve" style="white-space: pre" font-family="IBM Plex Serif" font-size="8" letter-spacing="0em"><tspan x="-2.10938" y="9">T</tspan></text>
<rect id="Rectangle 131" x="95" y="1" width="805" height="15" fill="#212121"/>
<rect id="Rectangle 135" width="1" height="1" fill="#B35EAA"/>
</g>
<g id="group">
<rect id="cursor" x="246" y="20" width="1" height="706" fill="#525252"/>
</g>
<text id="Host:" fill="white" xml:space="preserve" style="white-space: pre" font-family="Inter" font-size="10" letter-spacing="0em"><tspan x="0" y="9.63636">Host: </tspan></text>
<text id="hostName/" fill="white" xml:space="preserve" style="white-space: pre" font-family="Inter" font-size="10" letter-spacing="0em"><tspan x="41" y="9.63636">localhost:8888</tspan></text>
<g id="sendButton/_2">
<rect x="27" width="12" height="13" rx="6" fill="white" fill-opacity="0.01"/>
<circle id="Ellipse 14" cx="33" cy="7" r="3" fill="#D9D9D9"/>
</g>
<rect id="Rectangle 140" x="39.5" y="0.5" width="205" height="12" stroke="#D9D9D9"/>
</g>
<defs>
<linearGradient id="paint0_linear_153_1426" x1="-1.15385" y1="10.6875" x2="-5" y2="10.6875" gradientUnits="userSpaceOnUse">
<stop stop-color="#202020"/>
<stop offset="1" stop-color="#202020" stop-opacity="0"/>
</linearGradient>
<clipPath id="clip0_153_1426">
<rect width="912" height="1596" fill="white"/>
</clipPath>
<clipPath id="clip1_153_1426">
<rect width="434" height="15" fill="white" transform="translate(349 21)"/>
</clipPath>
<clipPath id="clip2_153_1426">
<rect width="95" height="9" fill="white" transform="translate(792 24)"/>
</clipPath>
</defs>
</svg>
