<svg width="390" height="844" viewBox="0 0 390 844" fill="none" xmlns="http://www.w3.org/2000/svg">
<g id="MainScreen" clip-path="url(#clip0_510_1651)">
<rect width="390" height="844" fill="black"/>
<rect id="background" width="390" height="844" fill="black"/>
<g id="P5js toolkit Touch anywhere to let the magic begin.">
<text fill="white" xml:space="preserve" style="white-space: pre" font-family="Source Code Pro" font-size="25" letter-spacing="0em"><tspan x="195" y="576.387">&#10;</tspan><tspan x="37.6025" y="607.387">Touch anywhere to let </tspan><tspan x="75.0781" y="638.387">the magic begin.</tspan></text>
<text fill="white" xml:space="preserve" style="white-space: pre" font-family="Source Code Pro" font-size="25" font-weight="bold" letter-spacing="0em"><tspan x="105.059" y="545.388">P5js toolkit&#10;</tspan></text>
</g>
<text id="xcor" fill="white" xml:space="preserve" style="white-space: pre" font-family="Source Code Pro" font-size="25" letter-spacing="0em"><tspan x="60.0244" y="763.887">x:003</tspan></text>
<text id="ycor" fill="white" xml:space="preserve" style="white-space: pre" font-family="Source Code Pro" font-size="25" letter-spacing="0em"><tspan x="256.024" y="763.887">y:004</tspan></text>
<g id="mousePress">
<rect width="94" height="93" transform="translate(148 374)" fill="black" fill-opacity="0.01"/>
<rect id="rect" x="171" y="397" width="47.4874" height="47.4874" fill="white"/>
</g>
<g id="compass/big">
<path id="Subtract" fill-rule="evenodd" clip-rule="evenodd" d="M259.543 11C218.023 13.0896 185 47.4166 185 89.4564C185 132.842 220.171 168.013 263.557 168.013C306.943 168.013 342.114 132.842 342.114 89.4564C342.114 47.4166 309.092 13.0897 267.571 11V61.3594H259.543V11Z" fill="white"/>
</g>
<g id="compass/small">
<path id="Subtract_2" fill-rule="evenodd" clip-rule="evenodd" d="M64.4161 70.9865C48.0313 71.8111 35 85.3571 35 101.947C35 119.068 48.8792 132.947 66 132.947C83.1208 132.947 97 119.068 97 101.947C97 85.3571 83.9687 71.8111 67.584 70.9865V90.8592H64.4161V70.9865Z" fill="white"/>
</g>
<rect id="after" x="110.593" y="362.156" width="100" height="80" rx="40" transform="rotate(-165 110.593 362.156)" fill="#FF0000"/>
<rect id="test" x="110.593" y="523.156" width="100" height="80" rx="40" transform="rotate(-165 110.593 523.156)" fill="#FF0000"/>
<rect id="before" x="278" y="351" width="136" height="80" rx="1" transform="rotate(-180 278 351)" fill="white"/>
<g id="checkbox">
<g id="checked">
<rect id="background/" x="25" y="192" width="97" height="50" rx="25" fill="#828282"/>
<circle id="circle/" cx="97" cy="217" r="22" fill="white"/>
<rect id="icon/" x="91" y="211" width="12" height="12" rx="6" fill="black"/>
<text id="SettingName/" fill="#8A8A8A" xml:space="preserve" style="white-space: pre" font-family="Inter" font-size="25" font-weight="500" letter-spacing="0em"><tspan x="132" y="225.091">SettingName</tspan></text>
</g>
<g id="unchecked">
<rect id="background/_2" x="25" y="192" width="97" height="50" rx="25" fill="#006400"/>
<circle id="circle/_2" cx="50" cy="217" r="22" fill="white"/>
<rect id="icon/_2" x="44" y="211" width="12" height="12" rx="1" fill="white" fill-opacity="0.01"/>
<text id="SettingName/_2" fill="white" xml:space="preserve" style="white-space: pre" font-family="Inter" font-size="25" font-weight="500" letter-spacing="0em"><tspan x="132" y="225.091">Default</tspan></text>
</g>
</g>
</g>
<defs>
<clipPath id="clip0_510_1651">
<rect width="390" height="844" fill="white"/>
</clipPath>
</defs>
</svg>
