<svg width="360" height="640" viewBox="0 0 360 640" fill="none" xmlns="http://www.w3.org/2000/svg">
<g id="Scale" clip-path="url(#clip0_1144_57477)">
<rect width="360" height="640" transform="translate(360 640) rotate(-180)" fill="black"/>
<rect id="OutlineBar" x="325.605" y="60.1404" width="290.637" height="48.1528" transform="rotate(180 325.605 60.1404)" fill="#4D4D4D" stroke="white" stroke-width="3.43949"/>
<rect id="MovingBar" x="325.605" y="60.1404" width="290.637" height="48.1529" transform="rotate(180 325.605 60.1404)" fill="white" stroke="white" stroke-width="3.43949"/>
<text id="CurrentValue" transform="translate(327.325 119.185) rotate(180)" fill="white" xml:space="preserve" style="white-space: pre" font-family="Inter" font-size="45.8598" letter-spacing="0em"><tspan x="0" y="36.74">500gr</tspan></text>
<text id="IngredientName" transform="translate(331.337 204.599) rotate(180)" fill="white" xml:space="preserve" style="white-space: pre" font-family="Inter" font-size="68.7898" letter-spacing="0em"><tspan x="0" y="45.0781">Flour</tspan></text>
<text id="TotalValue" transform="translate(327.325 119.758) rotate(180)" fill="white" xml:space="preserve" style="white-space: pre" font-family="Inter" font-size="45.8598" letter-spacing="0em"><tspan x="208.85" y="36.74">500</tspan></text>
<rect id="Rectangle 90" x="33" y="62" width="2" height="52" transform="rotate(-180 33 62)" fill="black"/>
<g id="wifi">
<path id="Vector" d="M48 591.45C46.0234 593.097 43.5324 593.998 40.96 593.998C38.3876 593.998 35.8966 593.097 33.92 591.45" stroke="white" stroke-width="2" stroke-linecap="round" stroke-linejoin="round"/>
<path id="Vector_2" d="M51.5801 595C48.6577 597.576 44.8958 598.998 41.0001 598.998C37.1044 598.998 33.3425 597.576 30.4201 595" stroke="white" stroke-width="2" stroke-linecap="round" stroke-linejoin="round"/>
<path id="Vector_3" d="M44.4702 587.89C43.455 588.611 42.2405 588.999 40.9952 588.999C39.7499 588.999 38.5354 588.611 37.5202 587.89" stroke="white" stroke-width="2" stroke-linecap="round" stroke-linejoin="round"/>
<path id="Vector_4" d="M41 584L40.99 584" stroke="white" stroke-width="2" stroke-linecap="round" stroke-linejoin="round"/>
</g>
<g id="share-2">
<path id="Vector_5" d="M174 596C172.343 596 171 597.343 171 599C171 600.657 172.343 602 174 602C175.657 602 177 600.657 177 599C177 597.343 175.657 596 174 596Z" stroke="white" stroke-width="2" stroke-linecap="round" stroke-linejoin="round"/>
<path id="Vector_6" d="M186 589C184.343 589 183 590.343 183 592C183 593.657 184.343 595 186 595C187.657 595 189 593.657 189 592C189 590.343 187.657 589 186 589Z" stroke="white" stroke-width="2" stroke-linecap="round" stroke-linejoin="round"/>
<path id="Vector_7" d="M174 582C172.343 582 171 583.343 171 585C171 586.657 172.343 588 174 588C175.657 588 177 586.657 177 585C177 583.343 175.657 582 174 582Z" stroke="white" stroke-width="2" stroke-linecap="round" stroke-linejoin="round"/>
<path id="Vector_8" d="M183.41 590.49L176.58 586.51" stroke="white" stroke-width="2" stroke-linecap="round" stroke-linejoin="round"/>
<path id="Vector_9" d="M176.59 597.49L183.41 593.51" stroke="white" stroke-width="2" stroke-linecap="round" stroke-linejoin="round"/>
</g>
<g id="maximize">
<path id="Vector_10" d="M323 601L326 601C326.53 601 327.039 600.789 327.414 600.414C327.789 600.039 328 599.53 328 599L328 596M310 596L310 599C310 599.53 310.211 600.039 310.586 600.414C310.961 600.789 311.47 601 312 601L315 601M315 583L312 583C311.47 583 310.961 583.211 310.586 583.586C310.211 583.961 310 584.47 310 585L310 588M328 588L328 585C328 584.47 327.789 583.961 327.414 583.586C327.039 583.211 326.53 583 326 583L323 583" stroke="white" stroke-width="2" stroke-linecap="round" stroke-linejoin="round"/>
</g>
<rect id="Connect" opacity="0.01" x="223" y="640" width="86" height="86" transform="rotate(-180 223 640)" fill="#D9D9D9"/>
<rect id="Fullscreen" opacity="0.01" x="360" y="640" width="86" height="86" transform="rotate(-180 360 640)" fill="#D9D9D9"/>
<rect id="Foreground" opacity="0.01" y="3.14722e-05" width="360" height="554" fill="white"/>
</g>
<defs>
<clipPath id="clip0_1144_57477">
<rect width="360" height="640" fill="white" transform="translate(360 640) rotate(-180)"/>
</clipPath>
</defs>
</svg>
