<svg width="390" height="713" viewBox="0 0 390 713" fill="none" xmlns="http://www.w3.org/2000/svg">
<rect width="390" height="713" fill="#5E5E5E"/>
<g id="Scrolling">
<rect width="390" height="713" fill="black"/>
<g id="test">
<g clip-path="url(#clip0_36_201)">
<rect x="17" y="17" width="356" height="446" rx="5" fill="#1C1C1E"/>
<g id="checkbox/s1">
<g id="checked/">
<rect id="background/" x="304" y="30" width="54" height="32" rx="16" fill="#2EC851"/>
<text id="SettingName/" fill="white" xml:space="preserve" style="white-space: pre" font-family="Inter" font-size="17.2097" letter-spacing="0em"><tspan x="78.2742" y="53.1021">Airplane Mode</tspan></text>
<circle id="circle/" cx="342" cy="46" r="14" fill="white"/>
</g>
<g id="unchecked/">
<rect id="background/_2" x="304" y="30" width="54" height="32" rx="16" fill="#39383D"/>
<text id="SettingName/_2" fill="#8F8F8F" xml:space="preserve" style="white-space: pre" font-family="Inter" font-size="17.2097" letter-spacing="0em"><tspan x="78.2742" y="53.1021">Airplane Mode</tspan></text>
<circle id="circle/_2" cx="320" cy="46" r="14" fill="white"/>
</g>
</g>
<g id="checkbox/s2">
<g id="checked/_2">
<rect id="background/_3" x="304" y="76" width="54" height="32" rx="16" fill="#2EC851"/>
<text id="SettingName/_3" fill="white" xml:space="preserve" style="white-space: pre" font-family="Inter" font-size="17.2097" letter-spacing="0em"><tspan x="78.2742" y="99.1021">Airplane Mode</tspan></text>
<circle id="circle/_3" cx="342" cy="92" r="14" fill="white"/>
</g>
<g id="unchecked/_2">
<rect id="background/_4" x="304" y="76" width="54" height="32" rx="16" fill="#39383D"/>
<text id="SettingName/_4" fill="#8F8F8F" xml:space="preserve" style="white-space: pre" font-family="Inter" font-size="17.2097" letter-spacing="0em"><tspan x="78.2742" y="99.1021">Setting 1</tspan></text>
<circle id="circle/_4" cx="320" cy="92" r="14" fill="white"/>
</g>
</g>
<g id="checkbox/s3">
<g id="checked/_3">
<rect id="background/_5" x="304" y="122" width="54" height="32" rx="16" fill="#2EC851"/>
<text id="SettingName/_5" fill="white" xml:space="preserve" style="white-space: pre" font-family="Inter" font-size="17.2097" letter-spacing="0em"><tspan x="78.2742" y="145.102">Airplane Mode</tspan></text>
<circle id="circle/_5" cx="342" cy="138" r="14" fill="white"/>
</g>
<g id="unchecked/_3">
<rect id="background/_6" x="304" y="122" width="54" height="32" rx="16" fill="#39383D"/>
<text id="SettingName/_6" fill="#8F8F8F" xml:space="preserve" style="white-space: pre" font-family="Inter" font-size="17.2097" letter-spacing="0em"><tspan x="78.2742" y="145.102">Awesome</tspan></text>
<circle id="circle/_6" cx="320" cy="138" r="14" fill="white"/>
</g>
</g>
<g id="checkbox/s4">
<g id="checked/_4">
<rect id="background/_7" x="304" y="168" width="54" height="32" rx="16" fill="#2EC851"/>
<text id="SettingName/_7" fill="white" xml:space="preserve" style="white-space: pre" font-family="Inter" font-size="17.2097" letter-spacing="0em"><tspan x="78.2742" y="191.102">Airplane Mode</tspan></text>
<circle id="circle/_7" cx="342" cy="184" r="14" fill="white"/>
</g>
<g id="unchecked/_4">
<rect id="background/_8" x="304" y="168" width="54" height="32" rx="16" fill="#39383D"/>
<text id="SettingName/_8" fill="#8F8F8F" xml:space="preserve" style="white-space: pre" font-family="Inter" font-size="17.2097" letter-spacing="0em"><tspan x="78.2742" y="191.102">Test1</tspan></text>
<circle id="circle/_8" cx="320" cy="184" r="14" fill="white"/>
</g>
</g>
<g id="checkbox/s5">
<g id="checked/_5">
<rect id="background/_9" x="304" y="214" width="54" height="32" rx="16" fill="#2EC851"/>
<text id="SettingName/_9" fill="white" xml:space="preserve" style="white-space: pre" font-family="Inter" font-size="17.2097" letter-spacing="0em"><tspan x="78.2742" y="237.102">Airplane Mode</tspan></text>
<circle id="circle/_9" cx="342" cy="230" r="14" fill="white"/>
</g>
<g id="unchecked/_5">
<rect id="background/_10" x="304" y="214" width="54" height="32" rx="16" fill="#39383D"/>
<text id="SettingName/_10" fill="#8F8F8F" xml:space="preserve" style="white-space: pre" font-family="Inter" font-size="17.2097" letter-spacing="0em"><tspan x="78.2742" y="237.102">Setting</tspan></text>
<circle id="circle/_10" cx="320" cy="230" r="14" fill="white"/>
</g>
</g>
<g id="checkbox/s6">
<g id="checked/_6">
<rect id="background/_11" x="304" y="260" width="54" height="32" rx="16" fill="#2EC851"/>
<text id="SettingName/_11" fill="white" xml:space="preserve" style="white-space: pre" font-family="Inter" font-size="17.2097" letter-spacing="0em"><tspan x="78.2742" y="283.102">Airplane Mode</tspan></text>
<circle id="circle/_11" cx="342" cy="276" r="14" fill="white"/>
</g>
<g id="unchecked/_6">
<rect id="background/_12" x="304" y="260" width="54" height="32" rx="16" fill="#39383D"/>
<text id="SettingName/_12" fill="#8F8F8F" xml:space="preserve" style="white-space: pre" font-family="Inter" font-size="17.2097" letter-spacing="0em"><tspan x="78.2742" y="283.102">Vool setting</tspan></text>
<circle id="circle/_12" cx="320" cy="276" r="14" fill="white"/>
</g>
</g>
<g id="checkbox/s7">
<g id="checked/_7">
<rect id="background/_13" x="304" y="306" width="54" height="32" rx="16" fill="#2EC851"/>
<text id="SettingName/_13" fill="white" xml:space="preserve" style="white-space: pre" font-family="Inter" font-size="17.2097" letter-spacing="0em"><tspan x="78.2742" y="329.102">Airplane Mode</tspan></text>
<circle id="circle/_13" cx="342" cy="322" r="14" fill="white"/>
</g>
<g id="unchecked/_7">
<rect id="background/_14" x="304" y="306" width="54" height="32" rx="16" fill="#39383D"/>
<text id="SettingName/_14" fill="#8F8F8F" xml:space="preserve" style="white-space: pre" font-family="Inter" font-size="17.2097" letter-spacing="0em"><tspan x="78.2742" y="329.102">Airplane Mode</tspan></text>
<circle id="circle/_14" cx="320" cy="322" r="14" fill="white"/>
</g>
</g>
<line id="Line 1" x1="22" y1="68.5" x2="366" y2="68.5" stroke="#3C3B42"/>
<line id="Line 2" x1="22" y1="114.5" x2="366" y2="114.5" stroke="#3C3B42"/>
<line id="Line 3" x1="22" y1="160.5" x2="366" y2="160.5" stroke="#3C3B42"/>
<line id="Line 4" x1="22" y1="206.5" x2="366" y2="206.5" stroke="#3C3B42"/>
<line id="Line 5" x1="22" y1="252.5" x2="366" y2="252.5" stroke="#3C3B42"/>
<line id="Line 6" x1="22" y1="298.5" x2="366" y2="298.5" stroke="#3C3B42"/>
<g id="checkbox/s1_2">
<g id="checked/_8">
<rect id="background/_15" x="99" y="397" width="196" height="32" rx="16" fill="#2EC851"/>
<circle id="circle/_15" cx="279" cy="413" r="14" fill="white"/>
</g>
<g id="unchecked/_8">
<rect id="background/_16" x="99" y="397" width="196" height="32" rx="16" fill="#39383D"/>
<circle id="circle/_16" cx="115" cy="413" r="14" fill="white"/>
</g>
</g>
<g id="checkbox/s10">
<g id="checked/_9">
<g clip-path="url(#clip1_36_201)">
<rect id="background/_17" x="98" y="361" width="192" height="32" rx="16" fill="#2EC851"/>
<rect id="circle/_17" x="49" y="363" width="239" height="28" rx="14" fill="#D9D9D9"/>
</g>
</g>
<g id="unchecked/_9">
<g clip-path="url(#clip2_36_201)">
<rect id="background/_18" x="98" y="361" width="192" height="32" rx="16" fill="#39383D"/>
<rect id="circle/_18" x="-110" y="363" width="239" height="28" rx="14" fill="#D9D9D9"/>
</g>
</g>
</g>
</g>
</g>
<g id="button/">
<g id="checked/_10">
<rect x="26" y="631" width="338" height="56" rx="20" fill="#E7D5FF"/>
<rect id="box/" x="26" y="631" width="338" height="56" rx="7" fill="#E7D5FF"/>
<text id="ButtonText/" fill="black" xml:space="preserve" style="white-space: pre" font-family="Inter" font-size="20" letter-spacing="0em"><tspan x="143.789" y="666.273">ButtonText</tspan></text>
</g>
<g id="unchecked/_10">
<rect id="box/_2" x="36" y="635" width="318" height="48" rx="7" fill="#AE71FF"/>
<text id="ButtonText/_2" fill="black" xml:space="preserve" style="white-space: pre" font-family="Inter" font-size="20" letter-spacing="0em"><tspan x="174.697" y="666.273">Test</tspan></text>
</g>
</g>
<g id="Frame 91">
<g clip-path="url(#clip3_36_201)">
<g id="checkbox/s11">
<g id="checked/_11">
<rect id="background/_19" x="144" y="531" width="213" height="32" rx="16" fill="#39383D"/>
<g id="number/">
<g id="loadingbar/">
<rect id="circle/_19" x="290" y="531" width="67" height="32" rx="16" fill="#D9D9D9"/>
<text id="text/" fill="white" xml:space="preserve" style="white-space: pre" font-family="Inter" font-size="17.2097" letter-spacing="0em"><tspan x="330.244" y="553.258">10</tspan></text>
</g>
</g>
</g>
<g id="unchecked/_11">
<rect id="background/_20" x="144" y="531" width="213" height="32" rx="16" fill="#39383D"/>
<g id="number/_2">
<g id="loadingbar/_2">
<rect id="circle/_20" x="111" y="531" width="67" height="32" rx="16" fill="#D9D9D9"/>
<text id="text/_2" fill="white" xml:space="preserve" style="white-space: pre" font-family="Inter" font-size="17.2097" letter-spacing="0em"><tspan x="152.622" y="553.258">10</tspan></text>
</g>
</g>
</g>
</g>
</g>
</g>
<g id="Frame 92">
<g clip-path="url(#clip4_36_201)">
<g id="checkbox/s12">
<g id="checked/_12">
<rect id="background/_21" x="144" y="577" width="213" height="32" rx="16" fill="#39383D" fill-opacity="0.01"/>
<rect id="circle/_21" x="131" y="577" width="226" height="32" rx="16" fill="#52329D"/>
<g id="frame/">
<text id="text/_3" fill="white" xml:space="preserve" style="white-space: pre" font-family="Inter" font-size="17.2097" letter-spacing="0em"><tspan x="230.253" y="599.258">100%</tspan></text>
</g>
</g>
<g id="unchecked/_12">
<rect id="background/_22" x="144" y="577" width="213" height="32" rx="16" fill="#39383D" fill-opacity="0.01"/>
<rect id="circle/_22" x="111" y="577" width="67" height="32" rx="16" fill="#52329D"/>
<g id="frame/_2">
<text id="text/_4" fill="white" xml:space="preserve" style="white-space: pre" font-family="Inter" font-size="17.2097" letter-spacing="0em"><tspan x="155" y="599.258">0%</tspan></text>
</g>
</g>
</g>
</g>
</g>
<g id="LoadingSpinner" clip-path="url(#clip5_36_201)">
<g id="LoadingSpinner_2" clip-path="url(#clip6_36_201)">
<circle id="Ellipse 8" cx="68" cy="562.135" r="50" transform="rotate(1 68 562.135)" fill="url(#paint0_angular_36_201)"/>
</g>
<g id="LoadingSpinner_3" clip-path="url(#clip7_36_201)">
<circle id="Ellipse 8_2" cx="67" cy="561.27" r="50" fill="url(#paint1_angular_36_201)"/>
</g>
</g>
</g>
<g id="croppingFrame">
<g clip-path="url(#clip8_36_201)">
<g id="checkbox/s12_2">
<g id="checked/_13">
<rect id="background/_23" x="145.062" y="486" width="188.906" height="31" rx="15.5" fill="#39383D" fill-opacity="0.01"/>
<rect id="circle/_23" x="132.469" y="486" width="201.5" height="31" rx="15.5" fill="#52329D"/>
<g id="frame/_3">
<text id="text/_5" fill="white" xml:space="preserve" style="white-space: pre" font-family="Inter" font-size="16.6719" letter-spacing="0em"><tspan x="219.901" y="507.562">100%</tspan></text>
</g>
</g>
<g id="unchecked/_13">
<rect id="background/_24" x="145.062" y="486" width="188.906" height="31" rx="15.5" fill="#39383D" fill-opacity="0.01"/>
<rect id="circle/_24" x="113.094" y="486" width="64.9062" height="31" rx="15.5" fill="#52329D"/>
<g id="frame/_4">
<text id="text/_6" fill="white" xml:space="preserve" style="white-space: pre" font-family="Inter" font-size="16.6719" letter-spacing="0em"><tspan x="155.719" y="507.562">0%</tspan></text>
</g>
</g>
</g>
</g>
</g>
<rect id="Rectangle 56" x="145.36" y="484.36" width="189.28" height="34.28" rx="17.14" stroke="#D9D9D9" stroke-width="0.72"/>
<defs>
<radialGradient id="paint0_angular_36_201" cx="0" cy="0" r="1" gradientUnits="userSpaceOnUse" gradientTransform="translate(68 562.135) rotate(90) scale(50)">
<stop stop-color="white"/>
<stop offset="1"/>
</radialGradient>
<radialGradient id="paint1_angular_36_201" cx="0" cy="0" r="1" gradientUnits="userSpaceOnUse" gradientTransform="translate(67 561.27) rotate(90) scale(50)">
<stop stop-color="white"/>
<stop offset="1"/>
</radialGradient>
<clipPath id="clip0_36_201">
<rect x="17" y="17" width="356" height="446" rx="5" fill="white"/>
</clipPath>
<clipPath id="clip1_36_201">
<rect x="96" y="359" width="196" height="36" rx="18" fill="white"/>
</clipPath>
<clipPath id="clip2_36_201">
<rect x="96" y="359" width="196" height="36" rx="18" fill="white"/>
</clipPath>
<clipPath id="clip3_36_201">
<rect x="146" y="531" width="210" height="32" rx="16" fill="white"/>
</clipPath>
<clipPath id="clip4_36_201">
<rect x="146" y="577" width="210" height="32" rx="16" fill="white"/>
</clipPath>
<clipPath id="clip5_36_201">
<rect width="100" height="100" fill="white" transform="translate(17 511)"/>
</clipPath>
<clipPath id="clip6_36_201">
<rect width="100" height="100" fill="white" transform="translate(18.8802 511.27) rotate(1)"/>
</clipPath>
<clipPath id="clip7_36_201">
<rect width="100" height="100" fill="white" transform="translate(17 511.27)"/>
</clipPath>
<clipPath id="clip8_36_201">
<rect x="147" y="486" width="186" height="31" rx="15.5" fill="white"/>
</clipPath>
</defs>
</svg>
